<svg width="15" height="15" viewBox="0 0 15 15" fill="none" xmlns="http://www.w3.org/2000/svg">
<g clip-path="url(#clip0_875_2423)">
<path d="M5.63235 12.9341H5.48235C5.34198 12.9341 5.142 12.8778 4.97325 12.7975C4.89006 12.7578 4.82257 12.7162 4.77851 12.6794C4.75913 12.6633 4.74749 12.6507 4.74126 12.6426L4.74126 6.12523C4.74405 6.12107 4.7495 6.11383 4.75951 6.10334C4.78633 6.07526 4.83032 6.04028 4.89293 5.99875C5.01775 5.91594 5.18844 5.82512 5.37381 5.7267L5.37382 5.72669L5.37578 5.72565C6.29218 5.239 7.86539 4.40356 8.46783 2.10805L8.46785 2.10799C8.53437 1.85408 8.61351 1.6655 8.69442 1.54403C8.77869 1.41754 8.84245 1.39497 8.87235 1.39494C8.87237 1.39494 8.87238 1.39494 8.87239 1.39494H8.87241C8.92107 1.39494 9.02221 1.43834 9.14102 1.57382L9.2538 1.47492L9.14102 1.57383C9.23982 1.68648 9.32292 1.83148 9.37692 1.97825C9.43164 2.12696 9.45158 2.26395 9.43866 2.3619L9.43861 2.36229C9.34391 3.09502 9.23893 3.6599 9.15756 4.04178C9.07614 4.42392 9.01843 4.62251 9.01845 4.62242L9.01799 4.62399L9.018 4.62399C9.01656 4.62906 9.015 4.63484 9.01352 4.641L9.01339 4.64156L8.87356 5.23389C8.87356 5.23389 8.87355 5.2339 8.87355 5.23391C8.84819 5.34131 8.87337 5.45433 8.94176 5.5408L8.94177 5.54081C9.01028 5.62743 9.11459 5.6778 9.22485 5.6778L12.8213 5.6778C13.1718 5.6778 13.4573 5.96329 13.4573 6.31404C13.4573 6.60077 13.2628 6.85334 12.9838 6.92734L12.9837 6.92735C12.8085 6.97386 12.6949 7.14312 12.7184 7.32295M5.63235 12.9341L12.9143 9.24771L12.7653 9.22972C12.7873 9.0484 12.9411 8.91205 13.1237 8.91205H13.2553C13.6056 8.91205 13.891 8.62657 13.891 8.27567C13.891 7.92329 13.6052 7.63726 13.2553 7.63726H13.0763C12.895 7.63726 12.7418 7.50275 12.7184 7.32295M5.63235 12.9341V12.9341M5.63235 12.9341V12.9341M12.7184 7.32295L12.8671 7.30354L12.7184 7.3229C12.7184 7.32292 12.7184 7.32293 12.7184 7.32295ZM5.63235 12.9341L11.1439 12.9341L11.1441 12.9341L12.4472 12.9363C12.4473 12.9363 12.4473 12.9363 12.4473 12.9363C12.604 12.9362 12.7632 12.8586 12.8861 12.726C13.0088 12.5938 13.0856 12.4167 13.0856 12.2361C13.0856 11.8854 12.8 11.5998 12.4492 11.5998C12.2499 11.5998 12.0882 11.4382 12.0882 11.2389C12.0882 11.0395 12.2498 10.8779 12.4492 10.8779H12.8873C13.2376 10.8779 13.523 10.5924 13.523 10.2416C13.523 9.94785 13.3238 9.6938 13.0377 9.6236L5.63235 12.9341ZM8.87222 0.672925H8.87226H8.87227H8.87228H8.87229H8.87229H8.8723H8.87231H8.87231H8.87232H8.87233H8.87234H8.87234H8.87235H8.87236H8.87236H8.87237H8.87238H8.87239H8.87239H8.8724H8.87241C9.16814 0.672925 9.45421 0.835928 9.68382 1.09773L9.68383 1.09773C10.0119 1.4718 10.2114 2.02321 10.1546 2.45529C9.96709 3.9059 9.74405 4.7114 9.71398 4.81616L9.681 4.95581H12.8213C13.5702 4.95581 14.1792 5.56499 14.1792 6.31398C14.1792 6.60157 14.0881 6.87259 13.9305 7.09563C14.3379 7.33053 14.613 7.77126 14.613 8.27558C14.613 8.76091 14.3575 9.18713 13.9745 9.42731C14.1457 9.65599 14.2449 9.93906 14.2449 10.2416C14.2449 10.7533 13.9608 11.1993 13.5425 11.4309C13.7089 11.6562 13.8075 11.9348 13.8075 12.236C13.8075 12.9895 13.1817 13.6581 12.4468 13.6581L12.4466 13.6581L11.1435 13.656H11.1434L5.48235 13.656C5.25995 13.656 4.90857 13.5773 4.61066 13.426C4.32115 13.279 4.0193 13.0294 4.0193 12.6598L4.0193 6.11239C4.0193 5.85493 4.15191 5.66591 4.33799 5.51198C4.51593 5.36478 4.76119 5.23454 5.02383 5.09506L5.03521 5.08902L5.10557 5.2215L5.03521 5.08902C5.93326 4.61212 7.24777 3.91266 7.76949 1.92481C7.8969 1.43855 8.07116 1.12528 8.26836 0.932426C8.46927 0.735946 8.68545 0.672979 8.87222 0.672925Z" fill="#569650" stroke="#569650" stroke-width="0.3"/>
<path d="M1.35129 4.34496H3.80229C4.30839 4.34496 4.74123 4.72694 4.74123 5.22196L4.74123 13.4226C4.74123 13.9176 4.30838 14.2996 3.80229 14.2996H1.35129C0.845978 14.2996 0.414491 13.9173 0.414491 13.4226L0.414491 5.22196C0.414491 4.72731 0.84597 4.34496 1.35129 4.34496ZM1.13645 13.4226C1.13645 13.4811 1.21012 13.5777 1.35129 13.5777H3.80229C3.94553 13.5777 4.01927 13.4804 4.01927 13.4226L4.01927 5.22196C4.01927 5.1642 3.94551 5.06689 3.80229 5.06689H1.35129C1.21012 5.06689 1.13645 5.16344 1.13645 5.22196L1.13645 13.4226Z" fill="#569650" stroke="#569650" stroke-width="0.3"/>
</g>
<defs>
<clipPath id="clip0_875_2423">
<rect width="15" height="15" fill="white" transform="matrix(1 0 0 -1 0 15)"/>
</clipPath>
</defs>
</svg>
