<svg width="85" height="86" viewBox="0 0 85 86" fill="none" xmlns="http://www.w3.org/2000/svg">
<path d="M85 43.3936C85 66.8651 65.9718 85.8936 42.4995 85.8936C19.0279 85.8936 0 66.8651 0 43.3936C0 19.922 19.0279 0.893555 42.4995 0.893555C65.9718 0.893555 85 19.922 85 43.3936Z" fill="#55934F"/>
<path d="M57.7568 35.9101C56.3281 34.4845 54.0125 34.4845 52.5838 35.9101L38.2202 50.2423L31.4163 43.4529C29.9883 42.0284 27.6719 42.0284 26.243 43.4529C24.815 44.8785 24.815 47.1908 26.243 48.6164L35.632 57.9848C37.0609 59.4108 39.3765 59.4092 40.8054 57.9848C40.8201 57.9695 40.8333 57.9523 40.848 57.9385C40.8737 57.9123 40.9016 57.8919 40.9279 57.8657L57.7568 41.0725C59.1858 39.6465 59.1849 37.3342 57.7568 35.9101Z" fill="white"/>
</svg>
