<svg xmlns="http://www.w3.org/2000/svg" xmlns:xlink="http://www.w3.org/1999/xlink">

<symbol viewBox="0 0 14 15" id="symbol" xmlns="http://www.w3.org/2000/svg">
	<path d="M13.3125 6.3C13.1369 6.08915 12.9171 5.91942 12.6687 5.80279C12.4204 5.68616 12.1494 5.62547 11.875 5.625H9.025L9.375 4.73125C9.52058 4.33992 9.56907 3.91913 9.51629 3.50495C9.46351 3.09077 9.31106 2.69558 9.07199 2.35327C8.83293 2.01095 8.51439 1.73175 8.14371 1.53959C7.77303 1.34743 7.36127 1.24806 6.94375 1.25C6.82352 1.25025 6.70592 1.28517 6.60504 1.35057C6.50417 1.41598 6.42429 1.50909 6.375 1.61875L4.59375 5.625H3.125C2.62772 5.625 2.15081 5.82254 1.79917 6.17417C1.44754 6.5258 1.25 7.00272 1.25 7.5V11.875C1.25 12.3723 1.44754 12.8492 1.79917 13.2008C2.15081 13.5525 2.62772 13.75 3.125 13.75H11.0812C11.5199 13.7499 11.9446 13.5959 12.2815 13.315C12.6183 13.0341 12.846 12.644 12.925 12.2125L13.7188 7.8375C13.7678 7.56711 13.7569 7.28924 13.6867 7.02354C13.6165 6.75785 13.4887 6.51084 13.3125 6.3ZM4.375 12.5H3.125C2.95924 12.5 2.80027 12.4341 2.68306 12.3169C2.56585 12.1997 2.5 12.0408 2.5 11.875V7.5C2.5 7.33424 2.56585 7.17527 2.68306 7.05806C2.80027 6.94085 2.95924 6.875 3.125 6.875H4.375V12.5ZM12.5 7.6125L11.7062 11.9875C11.6796 12.1331 11.6022 12.2645 11.4877 12.3584C11.3733 12.4522 11.2292 12.5024 11.0812 12.5H5.625V6.38125L7.325 2.55625C7.49999 2.60726 7.6625 2.694 7.80229 2.81099C7.94207 2.92797 8.05608 3.07266 8.13712 3.23593C8.21817 3.3992 8.26449 3.57749 8.27316 3.75956C8.28183 3.94163 8.25266 4.12352 8.1875 4.29375L7.85625 5.1875C7.78567 5.37641 7.76184 5.57959 7.7868 5.7797C7.81176 5.97982 7.88476 6.17092 7.99958 6.33671C8.11441 6.5025 8.26763 6.63804 8.44619 6.73177C8.62475 6.8255 8.82333 6.87464 9.025 6.875H11.875C11.9668 6.87485 12.0575 6.89493 12.1407 6.93382C12.2239 6.97271 12.2975 7.02945 12.3563 7.1C12.4165 7.16957 12.4606 7.25159 12.4854 7.34018C12.5103 7.42877 12.5152 7.52176 12.5 7.6125Z" fill="inherit"/>
</symbol>

<use xlink:href="#symbol" width="14" height="15" x="0" y="0" fill="#569650"/>
<use xlink:href="#symbol" width="14" height="15" x="100" y="-15" fill="#994136" transform="scale(1, -1)"/>

<view id="like" width="14" height="15" viewBox="0 0 14 15"/>
<view id="dislike" width="14" height="15" viewBox="100 0 14 15"/>

</svg>
