<?xml version="1.0" encoding="UTF-8"?>
<svg width="18px" height="18px" viewBox="0 0 18 18" version="1.1" xmlns="http://www.w3.org/2000/svg" xmlns:xlink="http://www.w3.org/1999/xlink">
    <!-- Generator: Sketch 43.2 (39069) - http://www.bohemiancoding.com/sketch -->
    <title>download-icon-extension-1324760527053491862_0</title>
    <desc>Created with Sketch.</desc>
    <defs></defs>
    <g id="EXP-329" stroke="none" stroke-width="1" fill="none" fill-rule="evenodd">
        <g id="D:-click-pin-click" transform="translate(-1429.000000, -539.000000)" fill="#5F5B5B">
            <g id="Group-6" transform="translate(1068.000000, 530.000000)">
                <g id="Group-3" transform="translate(2.000000, 0.000000)">
                    <g id="download-icon-extension-1324760527053491862_0" transform="translate(359.000000, 9.000000)">
                        <path d="M5,2 C5,0.89543 5.89543,0 7,0 C8.1046,0 9,0.89543 9,2 L9,4 L14,4 L14,9 L16,9 C17.1046,9 18,9.8954 18,11 C18,12.1046 17.1046,13 16,13 L14,13 L14,18 L9,18 L9,16 C9,14.8954 8.1046,14 7,14 C5.89543,14 5,14.8954 5,16 L5,18 L0,18 L0,13 L2,13 C3.10457,13 4,12.1046 4,11 C4,9.8954 3.10457,9 2,9 L0,9 L0,4 L5,4 L5,2 Z" id="Shape"></path>
                    </g>
                </g>
            </g>
        </g>
    </g>
</svg>