<svg width="25" height="27" viewBox="0 0 25 27" fill="none" xmlns="http://www.w3.org/2000/svg">
<path fill-rule="evenodd" clip-rule="evenodd" d="M17.2013 26.3709C17.7079 26.3709 18.1229 25.9211 18.1229 25.3741V19.9104C18.4382 16.965 19.6019 17.8398 20.9711 18.7508C24.2812 20.9525 26.4804 15.1611 23.8051 13.3754C21.7056 11.9738 20.7962 14.3835 19.2581 14.1349C18.6641 14.0377 18.2511 13.3437 18.1209 12.2881V8.34123C18.1209 7.79193 17.7058 7.34435 17.1993 7.34435H12.9656C9.47038 6.86513 12.5729 4.77417 12.5729 2.82788C12.575 1.26588 11.2668 0 9.65348 0C8.04219 0 6.56314 1.26588 6.56314 2.82788C6.56314 4.6634 9.77351 6.86513 6.22949 7.34435H0.921607C0.415028 7.34435 0 7.79193 0 8.34123V12.279C0.270582 13.9586 1.32036 14.3474 2.66513 13.2397C3.11882 12.8645 3.88377 12.4282 4.43714 12.4282C5.87957 12.4282 7.05141 13.841 7.05141 15.5839C7.05141 17.3267 5.8816 19.1238 4.43714 19.1238C3.92242 19.1238 3.44229 18.943 3.0354 18.6287C3.0354 18.7621 0.512682 16.1761 0 19.3408V25.3786C0 25.9279 0.415028 26.3755 0.921607 26.3755C3.76374 26.3755 6.6018 26.3755 9.44189 26.3732C9.55379 25.7968 9.18962 25.1367 8.84783 24.5648C6.15829 20.0596 16.6215 19.6098 13.9319 24.705C13.7997 24.9559 13.6675 25.2 13.5657 25.4374C13.4376 25.7335 13.3521 26.0952 13.3704 26.3732L17.2013 26.3709Z" fill="white"/>
</svg>
