<svg width="19" height="31" viewBox="0 0 19 31" fill="none" xmlns="http://www.w3.org/2000/svg">
<path fill-rule="evenodd" clip-rule="evenodd" d="M14.5502 0.802983L4.36429 0.980778C3.49839 0.995893 3.27574 2.13446 3.46208 2.7202C3.49413 2.81925 3.61531 2.81424 4.00785 3.30399C4.51625 3.91562 4.94515 4.58916 5.28435 5.30854L5.36344 9.84009C5.39645 11.6484 3.71627 12.5684 2.07354 13.1529C1.72778 13.2758 1.17436 13.3288 1.18337 13.8454L1.21688 15.7649C1.21945 15.8999 1.27545 16.0284 1.37261 16.1222C1.46976 16.2161 1.60016 16.2676 1.73521 16.2654L17.8366 15.9829C17.9717 15.9803 18.1002 15.9243 18.194 15.8272C18.2878 15.73 18.3393 15.5996 18.3372 15.4646L18.3022 13.5466C18.2933 13.0358 17.6366 13.0429 17.2213 12.9029C15.7113 12.4095 13.8957 11.5217 13.8671 9.8851L13.7963 5.16574C14.1569 4.45887 14.5661 3.77787 15.021 3.12764C15.3872 2.60443 15.4983 2.60394 15.5181 2.49821C15.644 1.8536 15.4219 0.787768 14.5502 0.802983ZM11.639 17.2113L7.97193 17.2768L9.76169 30.5744L10.3144 30.5633L11.639 17.2113Z" fill="white" stroke="white" stroke-width="0.57" stroke-miterlimit="22.93"/>
</svg>
