<svg xmlns="http://www.w3.org/2000/svg" xmlns:xlink="http://www.w3.org/1999/xlink">
<defs>
	<clipPath id="clip2_1945_8508">
		<rect x="20" y="222" width="32" height="22" rx="3" fill="white"/>
	</clipPath>
	
	<style>
	use#use_white{ fill: #fff }
	use#use_grey{ fill: #efefef }
	</style>
</defs>

<symbol viewBox="0 0 361 263" id="symbol_popup">
	<defs>
		<clipPath id="clip0_1945_9851">
		<rect width="112" height="112" fill="white" transform="translate(124 12)"/>
		</clipPath>
		<clipPath id="clip1_1945_9851">
		<rect width="18" height="18" fill="white" transform="translate(333 10)"/>
		</clipPath>
		<clipPath id="clip2_1945_9851">
		<rect x="20" y="222" width="32" height="22" rx="3" fill="white"/>
		</clipPath>
		<clipPath id="clip3_1945_9851">
		<rect width="23" height="12" fill="white" transform="translate(242 227)"/>
		</clipPath>
	</defs>
	
	<g clip-path="url(#clip0_1945_9851)">
	<circle cx="180" cy="68" r="56" fill="#E5EBEF"/>
	<path d="M180 118C207.614 118 230 95.6142 230 68C230 40.3858 207.614 18 180 18C152.386 18 130 40.3858 130 68C130 95.6142 152.386 118 180 118Z" fill="#6D94D0"/>
	<path d="M180 114.97C205.941 114.97 226.97 93.9406 226.97 68C226.97 42.0593 205.941 21.0303 180 21.0303C154.059 21.0303 133.03 42.0593 133.03 68C133.03 93.9406 154.059 114.97 180 114.97Z" fill="#1C304E"/>
	<path fill-rule="evenodd" clip-rule="evenodd" d="M205.956 46.3482C208.355 45.3302 210.601 44.1723 212.668 42.8897C214.337 41.8536 215.905 40.7241 217.345 39.5096C216.732 38.7068 216.093 37.9244 215.431 37.1635C212.56 39.5881 209.059 41.7073 205.077 43.4279C202.117 34.3319 197.563 27.007 192.073 22.5965C188.221 21.5748 184.174 21.0303 180 21.0303C175.826 21.0303 171.779 21.5748 167.926 22.5965C162.437 27.007 157.883 34.3319 154.922 43.4279C150.941 41.7073 147.44 39.5881 144.569 37.1635C143.907 37.9244 143.268 38.7068 142.655 39.5096C144.095 40.7241 145.663 41.8536 147.332 42.8897C149.399 44.1723 151.645 45.3302 154.044 46.3482C152.348 52.4714 151.348 59.2871 151.225 66.4848H133.054C133.038 66.9879 133.03 67.493 133.03 68C133.03 68.5069 133.038 69.012 133.054 69.5151H151.225C151.348 76.7129 152.348 83.5286 154.044 89.6517C151.645 90.6697 149.399 91.8276 147.332 93.1103C145.663 94.1464 144.095 95.2758 142.655 96.4903C143.268 97.2931 143.907 98.0756 144.569 98.8365C147.44 96.4119 150.941 94.2927 154.922 92.5721C157.883 101.668 162.437 108.993 167.926 113.403C171.779 114.425 175.826 114.97 180 114.97C184.174 114.97 188.221 114.425 192.074 113.403C197.563 108.993 202.117 101.668 205.077 92.5721C209.059 94.2927 212.56 96.4119 215.431 98.8365C216.093 98.0756 216.732 97.2931 217.345 96.4903C215.905 95.2758 214.337 94.1464 212.668 93.1103C210.601 91.8276 208.355 90.6697 205.956 89.6517C207.652 83.5286 208.652 76.7129 208.775 69.5151H226.946C226.962 69.012 226.97 68.5069 226.97 68C226.97 67.493 226.962 66.9879 226.946 66.4848H208.775C208.652 59.2871 207.652 52.4714 205.956 46.3482ZM205.744 69.5151C205.623 76.3443 204.686 82.778 203.119 88.5386C196.68 86.21 189.317 84.8395 181.515 84.6819V69.5151H205.744ZM202.256 91.4492C196.136 89.2135 189.067 87.8717 181.515 87.7128V114.885C187.402 114.229 193.173 109.757 197.73 101.843C199.487 98.7909 201.017 95.2949 202.256 91.4492ZM178.485 114.885V87.7128C170.933 87.8717 163.864 89.2135 157.744 91.4492C158.983 95.2949 160.513 98.7909 162.27 101.843C166.827 109.757 172.598 114.229 178.485 114.885ZM156.881 88.5386C163.32 86.21 170.683 84.8395 178.485 84.6819V69.5151H154.256C154.377 76.3443 155.314 82.778 156.881 88.5386ZM156.881 47.4613C155.314 53.2219 154.377 59.6556 154.256 66.4848H178.485V51.318C170.683 51.1605 163.32 49.79 156.881 47.4613ZM178.485 48.2871C170.933 48.1282 163.864 46.7864 157.744 44.5508C158.983 40.7051 160.513 37.2091 162.27 34.1566C166.827 26.2425 172.598 21.7712 178.485 21.1148V48.2871ZM181.515 48.2871V21.1148C187.402 21.7712 193.173 26.2425 197.73 34.1566C199.487 37.2091 201.017 40.7051 202.256 44.5508C196.136 46.7864 189.067 48.1282 181.515 48.2871ZM181.515 51.318C189.317 51.1605 196.68 49.79 203.119 47.4613C204.686 53.2219 205.623 59.6556 205.744 66.4848H181.515V51.318Z" fill="#6D94D0"/>
	<path d="M180.297 51.0445C180.1 51.015 179.9 51.015 179.703 51.0445L161.703 53.7445C160.724 53.8914 160 54.7324 160 55.7224V58.1812C160 58.9813 160.477 59.7043 161.212 60.0195L162.581 60.6061C163.138 60.8451 163.5 61.3933 163.5 62V62C163.5 62.6067 163.138 63.1549 162.581 63.3939L161.212 63.9805C160.477 64.2957 160 65.0187 160 65.8188V75.8197C160 75.9396 160.009 76.0549 160.034 76.1724C160.801 79.8643 165.582 88.786 178.993 96.902C179.61 97.2753 180.39 97.2753 181.007 96.902C194.418 88.786 199.199 79.8643 199.966 76.1724C199.991 76.0549 200 75.9396 200 75.8197V65.8188C200 65.0187 199.523 64.2957 198.788 63.9805L197.419 63.3939C196.862 63.1549 196.5 62.6067 196.5 62V62C196.5 61.3933 196.862 60.8451 197.419 60.6061L198.788 60.0195C199.523 59.7043 200 58.9813 200 58.1812V55.7224C200 54.7324 199.276 53.8914 198.297 53.7445L180.297 51.0445Z" fill="#EA9F37"/>
	<path d="M180.298 52.0448C180.1 52.0151 179.9 52.0151 179.702 52.0448L163.702 54.4534C162.724 54.6007 162 55.4415 162 56.4311V58.3605C162 59.1596 162.476 59.882 163.21 60.1978L164.32 60.6754C164.824 60.8919 165.15 61.3874 165.15 61.9355V61.9355C165.15 62.4836 164.824 62.979 164.32 63.1956L163.21 63.6732C162.476 63.989 162 64.7114 162 65.5105V74.4009C162 74.5205 162.009 74.6359 162.034 74.7529C162.733 78.0881 167.02 86.0962 178.993 93.3981C179.61 93.7746 180.39 93.7746 181.007 93.3981C192.98 86.0962 197.267 78.0881 197.966 74.7529C197.991 74.6359 198 74.5205 198 74.4009V65.5105C198 64.7114 197.524 63.989 196.79 63.6732L195.68 63.1956C195.176 62.979 194.85 62.4836 194.85 61.9355V61.9355C194.85 61.3874 195.176 60.8919 195.68 60.6754L196.79 60.1978C197.524 59.882 198 59.1596 198 58.3605V56.4311C198 55.4415 197.276 54.6007 196.298 54.4534L180.298 52.0448Z" fill="#F4C344"/>
	<path fill-rule="evenodd" clip-rule="evenodd" d="M173 69C171.895 69 171 69.8954 171 71V80C171 81.1046 171.895 82 173 82H187C188.105 82 189 81.1046 189 80V71C189 69.8954 188.105 69 187 69C187 65.134 183.866 62 180 62C176.134 62 173 65.134 173 69ZM183 69C183 67.3431 181.657 66 180 66C178.343 66 177 67.3431 177 69H183Z" fill="#328B28"/>
	<path opacity="0.3" d="M180 97.1596C180.349 97.1596 180.698 97.0662 181.007 96.8796C194.418 88.7636 199.199 79.8419 199.966 76.15C199.991 76.0326 200 75.9173 200 75.7973V65.7964C200 64.9964 199.523 64.2733 198.788 63.9581L197.419 63.3715C196.862 63.1326 196.5 62.5843 196.5 61.9776C196.5 61.371 196.862 60.8227 197.419 60.5837L198.788 59.9971C199.523 59.682 200 58.9589 200 58.1588V55.7C200 54.71 199.276 53.869 198.297 53.7221L180.297 51.0221C180.198 51.0074 180.099 51 180 51V97.1596Z" fill="white"/>
	<path opacity="0.4" fill-rule="evenodd" clip-rule="evenodd" d="M194.567 85.6806L174.666 51.8001L179.703 51.0446C179.9 51.0151 180.1 51.0151 180.296 51.0446L185.082 51.7624L199.803 76.8248C199.216 78.8672 197.642 82.043 194.567 85.6806Z" fill="white"/>
	</g>
	<g clip-path="url(#clip1_1945_9851)">
	<path d="M350.567 19.9766C350.602 19.6559 350.625 19.3308 350.625 19.0001C350.625 18.6693 350.602 18.3442 350.566 18.023L348.104 17.1472C347.981 16.7444 347.82 16.3597 347.625 15.9941L348.746 13.6361C348.338 13.1247 347.874 12.6605 347.363 12.2523L345.005 13.3751C344.638 13.1778 344.251 13.0176 343.852 12.8969L342.977 10.4343C342.656 10.3983 342.331 10.3752 342 10.3752C341.669 10.3752 341.344 10.3977 341.023 10.4343L340.148 12.8969C339.745 13.019 339.36 13.1793 338.994 13.3751L336.636 12.2523C336.124 12.6601 335.66 13.1242 335.252 13.6361L336.375 15.9929C336.179 16.3586 336.019 16.7439 335.897 17.1461L333.434 18.0236C333.398 18.3442 333.375 18.6704 333.375 19.0006C333.375 19.3308 333.398 19.6559 333.434 19.9771L335.897 20.8535C336.019 21.2557 336.179 21.641 336.375 22.0066L335.253 24.3646C335.66 24.8765 336.125 25.3394 336.636 25.7472L338.993 24.6251C339.358 24.8208 339.744 24.9817 340.146 25.1043L341.022 27.5664C341.343 27.6018 341.668 27.6243 341.999 27.6243C342.33 27.6243 342.655 27.6018 342.976 27.5658L343.852 25.1032C344.254 24.9806 344.64 24.8197 345.005 24.6251L347.363 25.7456C347.875 25.3377 348.338 24.8737 348.746 24.3629L347.625 22.0055C347.821 21.6416 347.981 21.2551 348.104 20.8524L350.566 19.9766H350.567ZM342 21.7394C341.64 21.7395 341.284 21.6687 340.951 21.5311C340.619 21.3935 340.317 21.1917 340.062 20.9373C339.548 20.4236 339.259 19.7267 339.259 19.0001C339.259 18.2734 339.548 17.5764 340.061 17.0625C340.575 16.5485 341.272 16.2597 341.999 16.2596C342.725 16.2594 343.422 16.5479 343.936 17.0617C344.45 17.5754 344.739 18.2723 344.739 18.9989C344.739 19.7256 344.451 20.4226 343.937 20.9365C343.423 21.4505 342.726 21.7393 342 21.7394Z" fill="#7F7F7F"/>
	</g>
	<rect x="322.5" y="0.5" width="37" height="37" rx="2.5" stroke="#BCBCBC" fill="transparent"/>
	<circle cx="322" cy="38" r="10" fill="#3B9946" stroke="white" stroke-width="4"/>
	<path d="M102.673 145.609C102.673 146.525 102.367 147.258 101.755 147.808C101.149 148.352 100.357 148.699 99.3799 148.847V148.912C100.555 149.054 101.455 149.407 102.08 149.97C102.704 150.526 103.017 151.256 103.017 152.159C103.017 152.951 102.809 153.65 102.395 154.256C101.981 154.862 101.362 155.335 100.54 155.675C99.717 156.015 98.6965 156.186 97.478 156.186C96.5936 156.186 95.7865 156.124 95.0566 156C94.3268 155.882 93.6774 155.697 93.1084 155.443V153.514C93.498 153.699 93.9248 153.86 94.3887 153.996C94.8587 154.126 95.335 154.228 95.8174 154.302C96.306 154.37 96.7637 154.404 97.1904 154.404C98.4027 154.404 99.3026 154.2 99.8901 153.792C100.478 153.384 100.771 152.806 100.771 152.057C100.771 151.29 100.391 150.73 99.6304 150.378C98.8696 150.025 97.8275 149.849 96.5039 149.849H94.8896V148.068H96.4019C97.3853 148.068 98.1738 147.981 98.7676 147.808C99.3613 147.635 99.7912 147.388 100.057 147.066C100.323 146.744 100.456 146.361 100.456 145.916C100.456 145.328 100.221 144.87 99.751 144.542C99.2871 144.208 98.6439 144.042 97.8213 144.042C97.042 144.042 96.3586 144.147 95.771 144.357C95.1834 144.567 94.6237 144.842 94.0918 145.183L93.0806 143.689C93.495 143.404 93.9465 143.154 94.4351 142.938C94.9299 142.721 95.4741 142.551 96.0679 142.427C96.6616 142.304 97.3141 142.242 98.0254 142.242C99.015 142.242 99.853 142.387 100.54 142.678C101.232 142.962 101.761 143.358 102.126 143.865C102.491 144.372 102.673 144.954 102.673 145.609ZM109.539 145.535C110.837 145.535 111.818 145.823 112.479 146.398C113.147 146.973 113.481 147.87 113.481 149.088V156H111.932L111.515 154.543H111.44C111.15 154.915 110.85 155.221 110.541 155.462C110.231 155.703 109.873 155.882 109.464 156C109.062 156.124 108.571 156.186 107.989 156.186C107.377 156.186 106.83 156.074 106.347 155.852C105.865 155.623 105.484 155.276 105.206 154.812C104.928 154.349 104.789 153.761 104.789 153.05C104.789 151.992 105.181 151.197 105.967 150.666C106.758 150.134 107.952 149.84 109.548 149.784L111.329 149.719V149.181C111.329 148.47 111.162 147.963 110.828 147.66C110.5 147.357 110.036 147.205 109.437 147.205C108.923 147.205 108.425 147.279 107.943 147.428C107.46 147.576 106.99 147.759 106.533 147.975L105.828 146.435C106.329 146.169 106.898 145.953 107.535 145.786C108.178 145.619 108.846 145.535 109.539 145.535ZM111.32 151.092L109.993 151.139C108.905 151.176 108.141 151.361 107.702 151.695C107.263 152.029 107.043 152.487 107.043 153.068C107.043 153.576 107.194 153.947 107.498 154.182C107.801 154.41 108.2 154.525 108.694 154.525C109.449 154.525 110.074 154.312 110.568 153.885C111.069 153.452 111.32 152.818 111.32 151.983V151.092ZM131.071 145.73V154.321H132.556V159.609H130.505V156H116.534V145.73H118.714V154.284H122.703V145.73H124.893V154.284H128.891V145.73H131.071ZM136.517 145.73V150.972C136.517 151.139 136.511 151.352 136.499 151.612C136.492 151.865 136.48 152.131 136.461 152.41C136.443 152.682 136.424 152.932 136.406 153.161C136.387 153.39 136.372 153.56 136.359 153.671L141.527 145.73H144.18V156H142.093V150.814C142.093 150.542 142.099 150.226 142.111 149.868C142.13 149.509 142.148 149.163 142.167 148.829C142.192 148.495 142.207 148.241 142.213 148.068L137.064 156H134.42V145.73H136.517ZM155.072 147.446H151.695V156H149.524V147.446H146.166V145.73H155.072V147.446ZM161.083 145.535C162.382 145.535 163.363 145.823 164.024 146.398C164.692 146.973 165.026 147.87 165.026 149.088V156H163.477L163.06 154.543H162.985C162.695 154.915 162.395 155.221 162.085 155.462C161.776 155.703 161.417 155.882 161.009 156C160.607 156.124 160.116 156.186 159.534 156.186C158.922 156.186 158.375 156.074 157.892 155.852C157.41 155.623 157.029 155.276 156.751 154.812C156.473 154.349 156.333 153.761 156.333 153.05C156.333 151.992 156.726 151.197 157.512 150.666C158.303 150.134 159.497 149.84 161.093 149.784L162.874 149.719V149.181C162.874 148.47 162.707 147.963 162.373 147.66C162.045 147.357 161.581 147.205 160.981 147.205C160.468 147.205 159.97 147.279 159.488 147.428C159.005 147.576 158.535 147.759 158.078 147.975L157.373 146.435C157.874 146.169 158.443 145.953 159.08 145.786C159.723 145.619 160.391 145.535 161.083 145.535ZM162.865 151.092L161.538 151.139C160.45 151.176 159.686 151.361 159.247 151.695C158.807 152.029 158.588 152.487 158.588 153.068C158.588 153.576 158.739 153.947 159.042 154.182C159.346 154.41 159.744 154.525 160.239 154.525C160.994 154.525 161.618 154.312 162.113 153.885C162.614 153.452 162.865 152.818 162.865 151.983V151.092ZM181.651 148.365C181.651 148.958 181.469 149.444 181.104 149.821C180.745 150.192 180.25 150.437 179.62 150.554V150.628C180.294 150.715 180.857 150.953 181.308 151.343C181.76 151.732 181.985 152.274 181.985 152.966C181.985 153.554 181.837 154.076 181.54 154.534C181.249 154.986 180.785 155.344 180.148 155.61C179.518 155.87 178.692 156 177.671 156H173.014V145.73H177.653C178.42 145.73 179.103 145.813 179.703 145.98C180.309 146.147 180.785 146.423 181.132 146.806C181.478 147.19 181.651 147.709 181.651 148.365ZM179.712 152.892C179.712 152.385 179.518 152.02 179.128 151.797C178.744 151.575 178.182 151.463 177.439 151.463H175.204V154.395H177.486C178.179 154.395 178.723 154.281 179.119 154.052C179.514 153.817 179.712 153.43 179.712 152.892ZM179.434 148.56C179.434 148.158 179.283 147.861 178.979 147.669C178.676 147.471 178.2 147.372 177.551 147.372H175.204V149.858H177.254C177.971 149.858 178.513 149.756 178.877 149.552C179.249 149.342 179.434 149.011 179.434 148.56ZM190.808 145.73H193.211L188.962 150.666L193.573 156H191.059L186.633 150.786V156H184.444V145.73H186.633V150.712L190.808 145.73ZM203.694 156H201.496V147.437H198.647C198.524 148.996 198.369 150.328 198.184 151.436C197.998 152.543 197.766 153.446 197.488 154.145C197.209 154.837 196.866 155.344 196.458 155.666C196.05 155.988 195.558 156.148 194.983 156.148C194.729 156.148 194.5 156.13 194.296 156.093C194.092 156.062 193.91 156.012 193.749 155.944V154.228C193.854 154.265 193.969 154.296 194.092 154.321C194.216 154.346 194.343 154.358 194.473 154.358C194.701 154.358 194.912 154.265 195.104 154.08C195.301 153.888 195.484 153.588 195.651 153.18C195.818 152.771 195.969 152.233 196.105 151.565C196.242 150.891 196.365 150.075 196.477 149.116C196.588 148.151 196.687 147.023 196.773 145.73H203.694V156ZM220.514 150.842C220.514 151.974 220.326 152.938 219.948 153.736C219.577 154.534 219.045 155.143 218.353 155.564C217.66 155.978 216.831 156.186 215.866 156.186C215.013 156.186 214.255 156.012 213.593 155.666C212.938 155.32 212.412 154.803 212.016 154.117C211.62 153.43 211.376 152.58 211.283 151.565H209.001V156H206.821V145.73H209.001V149.858H211.311C211.422 148.937 211.676 148.154 212.072 147.511C212.468 146.868 212.99 146.379 213.64 146.045C214.295 145.705 215.053 145.535 215.913 145.535C216.828 145.535 217.629 145.745 218.315 146.166C219.008 146.58 219.546 147.183 219.93 147.975C220.319 148.761 220.514 149.716 220.514 150.842ZM213.5 150.842C213.5 151.609 213.581 152.258 213.742 152.79C213.909 153.322 214.168 153.724 214.521 153.996C214.874 154.268 215.331 154.404 215.894 154.404C216.457 154.404 216.911 154.268 217.258 153.996C217.61 153.724 217.867 153.325 218.028 152.799C218.195 152.267 218.278 151.615 218.278 150.842C218.278 150.075 218.195 149.432 218.028 148.912C217.867 148.393 217.61 148 217.258 147.734C216.905 147.462 216.448 147.326 215.885 147.326C215.328 147.326 214.874 147.462 214.521 147.734C214.168 148 213.909 148.393 213.742 148.912C213.581 149.432 213.5 150.075 213.5 150.842ZM224.949 145.73V149.45C224.949 149.994 225.091 150.4 225.375 150.666C225.66 150.931 226.068 151.064 226.6 151.064C227.194 151.064 227.738 150.984 228.233 150.823C228.734 150.662 229.238 150.446 229.745 150.174V145.73H231.925V156H229.745V151.658C229.232 151.961 228.697 152.215 228.14 152.419C227.583 152.623 226.931 152.725 226.183 152.725C225.119 152.725 224.284 152.45 223.678 151.899C223.072 151.349 222.769 150.563 222.769 149.543V145.73H224.949ZM239.134 145.535C240.049 145.535 240.835 145.724 241.49 146.101C242.146 146.478 242.65 147.013 243.002 147.706C243.355 148.399 243.531 149.228 243.531 150.192V151.361H236.675C236.7 152.357 236.966 153.124 237.473 153.662C237.986 154.2 238.704 154.469 239.625 154.469C240.281 154.469 240.869 154.407 241.388 154.284C241.914 154.154 242.455 153.965 243.012 153.718V155.49C242.498 155.731 241.976 155.907 241.444 156.019C240.912 156.13 240.275 156.186 239.533 156.186C238.525 156.186 237.637 155.991 236.87 155.601C236.109 155.205 235.513 154.618 235.08 153.838C234.653 153.059 234.439 152.091 234.439 150.935C234.439 149.784 234.634 148.807 235.024 148.003C235.414 147.199 235.961 146.587 236.666 146.166C237.371 145.745 238.194 145.535 239.134 145.535ZM239.134 147.177C238.447 147.177 237.891 147.4 237.464 147.845C237.043 148.291 236.796 148.943 236.722 149.803H241.397C241.391 149.289 241.305 148.835 241.138 148.439C240.977 148.043 240.729 147.734 240.396 147.511C240.068 147.289 239.647 147.177 239.134 147.177ZM248.179 145.73V149.858H252.985V145.73H255.174V156H252.985V151.565H248.179V156H245.99V145.73H248.179ZM262.318 145.535C263.617 145.535 264.597 145.823 265.259 146.398C265.927 146.973 266.261 147.87 266.261 149.088V156H264.711L264.294 154.543H264.22C263.929 154.915 263.629 155.221 263.32 155.462C263.011 155.703 262.652 155.882 262.244 156C261.842 156.124 261.35 156.186 260.769 156.186C260.156 156.186 259.609 156.074 259.126 155.852C258.644 155.623 258.264 155.276 257.985 154.812C257.707 154.349 257.568 153.761 257.568 153.05C257.568 151.992 257.961 151.197 258.746 150.666C259.538 150.134 260.731 149.84 262.327 149.784L264.108 149.719V149.181C264.108 148.47 263.941 147.963 263.607 147.66C263.28 147.357 262.816 147.205 262.216 147.205C261.702 147.205 261.205 147.279 260.722 147.428C260.24 147.576 259.77 147.759 259.312 147.975L258.607 146.435C259.108 146.169 259.677 145.953 260.314 145.786C260.957 145.619 261.625 145.535 262.318 145.535ZM264.099 151.092L262.772 151.139C261.684 151.176 260.92 151.361 260.481 151.695C260.042 152.029 259.822 152.487 259.822 153.068C259.822 153.576 259.974 153.947 260.277 154.182C260.58 154.41 260.979 154.525 261.474 154.525C262.228 154.525 262.853 154.312 263.348 153.885C263.849 153.452 264.099 152.818 264.099 151.983V151.092Z" fill="#3B9946"/>


	<rect x="0.5" y="203.5" width="360" height="59" rx="3.5" fill="inherit"/>


	
	
	<g clip-path="url(#clip3_1945_9851)" transform="translate(-4 0)">
		<rect x="242" y="235" width="3" height="4" rx="1" fill="#E0B300"/>
		<rect x="247" y="233" width="3" height="6" rx="1" fill="#E0B300"/>
		<rect x="252" y="231" width="3" height="8" rx="1" fill="#E0B300"/>
		<rect x="257" y="229" width="3" height="10" rx="1" fill="#CED9DF"/>
		<rect x="262" y="227" width="3" height="12" rx="1" fill="#CED9DF"/>
	</g>
	<rect x="271.5" y="223.5" width="68" height="20" rx="2.5" fill="white"/>
	<path d="M285.171 230.189C284.698 230.189 284.272 230.271 283.893 230.436C283.518 230.596 283.198 230.83 282.932 231.139C282.671 231.443 282.469 231.812 282.329 232.246C282.188 232.68 282.118 233.168 282.118 233.711C282.118 234.43 282.229 235.055 282.452 235.586C282.678 236.113 283.014 236.521 283.46 236.811C283.909 237.1 284.469 237.244 285.141 237.244C285.524 237.244 285.883 237.213 286.219 237.15C286.559 237.084 286.889 237.002 287.21 236.904V237.771C286.897 237.889 286.569 237.975 286.225 238.029C285.881 238.088 285.473 238.117 285.001 238.117C284.13 238.117 283.401 237.938 282.815 237.578C282.233 237.215 281.796 236.703 281.503 236.043C281.214 235.383 281.069 234.604 281.069 233.705C281.069 233.057 281.159 232.465 281.339 231.93C281.522 231.391 281.788 230.926 282.135 230.535C282.487 230.145 282.917 229.844 283.424 229.633C283.936 229.418 284.522 229.311 285.182 229.311C285.616 229.311 286.034 229.354 286.436 229.439C286.839 229.525 287.202 229.648 287.526 229.809L287.128 230.652C286.854 230.527 286.553 230.42 286.225 230.33C285.901 230.236 285.549 230.189 285.171 230.189ZM295.58 231.578V238H294.701V233.816C294.701 233.645 294.705 233.471 294.713 233.295C294.724 233.115 294.738 232.936 294.754 232.756H294.719L292.586 238H291.76L289.679 232.756H289.644C289.656 232.936 289.664 233.115 289.668 233.295C289.676 233.471 289.679 233.656 289.679 233.852V238H288.795V231.578H290.101L292.176 236.828L294.279 231.578H295.58ZM299.954 231.461C300.501 231.461 300.97 231.582 301.36 231.824C301.751 232.066 302.05 232.406 302.257 232.844C302.464 233.277 302.567 233.785 302.567 234.367V234.971H298.132C298.143 235.725 298.331 236.299 298.694 236.693C299.058 237.088 299.569 237.285 300.229 237.285C300.636 237.285 300.995 237.248 301.308 237.174C301.62 237.1 301.944 236.99 302.28 236.846V237.701C301.956 237.846 301.634 237.951 301.313 238.018C300.997 238.084 300.622 238.117 300.188 238.117C299.571 238.117 299.032 237.992 298.571 237.742C298.114 237.488 297.759 237.117 297.505 236.629C297.251 236.141 297.124 235.543 297.124 234.836C297.124 234.145 297.239 233.547 297.47 233.043C297.704 232.535 298.032 232.145 298.454 231.871C298.88 231.598 299.38 231.461 299.954 231.461ZM299.942 232.258C299.423 232.258 299.009 232.428 298.7 232.768C298.391 233.107 298.208 233.582 298.149 234.191H301.548C301.544 233.809 301.483 233.473 301.366 233.184C301.253 232.891 301.079 232.664 300.845 232.504C300.61 232.34 300.309 232.258 299.942 232.258ZM305.078 231.578V234.273H308.658V231.578H309.631V238H308.658V235.1H305.078V238H304.1V231.578H305.078ZM312.499 231.578V235.615C312.499 235.693 312.497 235.795 312.493 235.92C312.489 236.041 312.484 236.172 312.476 236.312C312.468 236.449 312.46 236.582 312.452 236.711C312.448 236.836 312.443 236.939 312.435 237.021L315.939 231.578H317.134V238H316.226V234.062C316.226 233.938 316.228 233.777 316.232 233.582C316.235 233.387 316.241 233.195 316.249 233.008C316.257 232.816 316.263 232.668 316.267 232.562L312.775 238H311.573V231.578H312.499ZM323.459 232.404H321.344V238H320.383V232.404H318.297V231.578H323.459V232.404ZM325.589 234.227H327.558C328.105 234.227 328.56 234.295 328.923 234.432C329.286 234.568 329.558 234.771 329.738 235.041C329.921 235.311 330.013 235.645 330.013 236.043C330.013 236.441 329.923 236.787 329.744 237.08C329.568 237.373 329.294 237.6 328.923 237.76C328.556 237.92 328.081 238 327.499 238H324.611V231.578H325.589V234.227ZM329.035 236.09C329.035 235.695 328.894 235.422 328.613 235.27C328.335 235.113 327.947 235.035 327.447 235.035H325.589V237.209H327.452C327.921 237.209 328.302 237.123 328.595 236.951C328.888 236.775 329.035 236.488 329.035 236.09Z" fill="#2B8235"/>
	<rect x="271.5" y="223.5" width="68" height="20" rx="2.5" stroke="#2B8235" fill="transparent"/>
	<rect x="0.5" y="203.5" width="360" height="59" rx="3.5" stroke="#BCBCBC" fill="transparent"/>
</symbol>

<symbol viewBox="0 0 361 263" id="symbol_uk">
	<g clip-path="url(#clip2_1945_9851)">
		<path d="M52 222.021H20V243.978H52V222.021Z" fill="white"/>
		<path d="M38 222.021H34V230.941H20V235.058H34V243.978H38V235.058H52V230.941H38V222.021Z" fill="#D80027"/>
		<path d="M44.6123 236.818L52.0007 241.043V236.818H44.6123Z" fill="#0052B4"/>
		<path d="M39.4785 236.818L52.0003 243.978V241.954L43.0195 236.818H39.4785Z" fill="#0052B4"/>
		<path d="M48.6649 243.978L39.4785 238.725V243.978H48.6649Z" fill="#0052B4"/>
		<path d="M39.4785 236.818L52.0003 243.978V241.954L43.0195 236.818H39.4785Z" fill="white"/>
		<path d="M39.4785 236.818L52.0003 243.978V241.954L43.0195 236.818H39.4785Z" fill="#D80027"/>
		<path d="M25.6463 236.818L20 240.047V236.818H25.6463Z" fill="#0052B4"/>
		<path d="M32.5213 237.729V243.978H21.5928L32.5213 237.729Z" fill="#0052B4"/>
		<path d="M28.9808 236.818L20 241.954V243.978L32.5218 236.818H28.9808Z" fill="#D80027"/>
		<path d="M27.3884 229.181L20 224.957V229.181H27.3884Z" fill="#0052B4"/>
		<path d="M32.5218 229.181L20 222.021V224.045L28.9808 229.181H32.5218Z" fill="#0052B4"/>
		<path d="M23.335 222.021L32.5213 227.274V222.021H23.335Z" fill="#0052B4"/>
		<path d="M32.5218 229.181L20 222.021V224.045L28.9808 229.181H32.5218Z" fill="white"/>
		<path d="M32.5218 229.181L20 222.021V224.045L28.9808 229.181H32.5218Z" fill="#D80027"/>
		<path d="M46.3535 229.181L51.9998 225.953V229.181H46.3535Z" fill="#0052B4"/>
		<path d="M39.4785 228.27V222.021H50.4071L39.4785 228.27Z" fill="#0052B4"/>
		<path d="M43.0195 229.181L52.0003 224.045V222.021L39.4785 229.181H43.0195Z" fill="#D80027"/>
	</g>
	<rect x="19.5" y="221.5" width="33" height="23" rx="3.5" stroke="#D9D8DD" fill="transparent"/>
	<path d="M66.7578 227.15H70.3965C72.002 227.15 73.209 227.391 74.0176 227.871C74.8262 228.352 75.2305 229.169 75.2305 230.323C75.2305 230.821 75.1338 231.27 74.9404 231.668C74.7529 232.061 74.4775 232.386 74.1143 232.644C73.751 232.901 73.3027 233.08 72.7695 233.18V233.268C73.332 233.355 73.8301 233.517 74.2637 233.751C74.6973 233.985 75.0371 234.313 75.2832 234.735C75.5293 235.157 75.6523 235.693 75.6523 236.344C75.6523 237.135 75.4678 237.803 75.0986 238.348C74.7354 238.893 74.2197 239.306 73.5518 239.587C72.8838 239.862 72.0928 240 71.1787 240H66.7578V227.15ZM68.252 232.661H70.7129C71.832 232.661 72.6055 232.477 73.0332 232.107C73.4668 231.738 73.6836 231.199 73.6836 230.49C73.6836 229.758 73.4258 229.23 72.9102 228.908C72.4004 228.586 71.5859 228.425 70.4668 228.425H68.252V232.661ZM68.252 233.918V238.726H70.9238C72.0664 238.726 72.875 238.503 73.3496 238.058C73.8242 237.606 74.0615 237 74.0615 236.238C74.0615 235.752 73.9531 235.336 73.7363 234.99C73.5254 234.645 73.1797 234.381 72.6992 234.199C72.2246 234.012 71.5889 233.918 70.792 233.918H68.252ZM81.7038 230.191C82.5241 230.191 83.2272 230.373 83.8132 230.736C84.3991 231.1 84.8473 231.609 85.1579 232.266C85.4684 232.916 85.6237 233.678 85.6237 234.551V235.456H78.9704C78.988 236.587 79.2692 237.448 79.8141 238.04C80.3591 238.632 81.1266 238.928 82.1169 238.928C82.7262 238.928 83.2653 238.872 83.7341 238.761C84.2028 238.649 84.6891 238.485 85.193 238.269V239.552C84.7067 239.769 84.2233 239.927 83.7429 240.026C83.2682 240.126 82.7057 240.176 82.0554 240.176C81.1296 240.176 80.321 239.988 79.6296 239.613C78.944 239.232 78.4108 238.676 78.03 237.943C77.6491 237.211 77.4587 236.314 77.4587 235.254C77.4587 234.217 77.6315 233.32 77.9772 232.564C78.3288 231.803 78.821 231.217 79.4538 230.807C80.0925 230.396 80.8425 230.191 81.7038 230.191ZM81.6862 231.387C80.9069 231.387 80.2858 231.642 79.8229 232.151C79.36 232.661 79.0846 233.373 78.9968 234.287H84.0944C84.0886 233.713 83.9977 233.209 83.822 232.775C83.652 232.336 83.3913 231.996 83.0397 231.756C82.6882 231.51 82.237 231.387 81.6862 231.387ZM95.1468 240H93.6615V231.589H90.7347C90.6175 233.106 90.4681 234.407 90.2865 235.491C90.1107 236.569 89.888 237.451 89.6185 238.137C89.3548 238.816 89.0326 239.317 88.6517 239.64C88.2767 239.956 87.8285 240.114 87.307 240.114C87.1488 240.114 86.9994 240.105 86.8587 240.088C86.7181 240.07 86.598 240.041 86.4984 240V238.893C86.5746 238.916 86.6537 238.934 86.7357 238.945C86.8236 238.957 86.9144 238.963 87.0082 238.963C87.2718 238.963 87.5121 238.854 87.7289 238.638C87.9515 238.415 88.1507 238.081 88.3265 237.636C88.5082 237.19 88.6693 236.628 88.8099 235.948C88.9505 235.263 89.0736 234.457 89.1791 233.531C89.2904 232.6 89.3871 231.545 89.4691 230.367H95.1468V240ZM99.4317 230.367V236.423C99.4317 236.54 99.4287 236.692 99.4229 236.88C99.417 237.062 99.4082 237.258 99.3965 237.469C99.3848 237.674 99.3731 237.873 99.3614 238.066C99.3555 238.254 99.3467 238.409 99.335 238.532L104.591 230.367H106.384V240H105.022V234.094C105.022 233.906 105.024 233.666 105.03 233.373C105.036 233.08 105.045 232.793 105.057 232.512C105.068 232.225 105.077 232.002 105.083 231.844L99.8448 240H98.043V230.367H99.4317ZM114.923 230.367H116.531L112.374 235.017L116.865 240H115.151L110.774 235.113V240H109.306V230.367H110.774V235.043L114.923 230.367ZM126.731 235.166C126.731 235.957 126.628 236.663 126.423 237.284C126.218 237.905 125.922 238.43 125.536 238.857C125.149 239.285 124.68 239.613 124.129 239.842C123.584 240.064 122.966 240.176 122.275 240.176C121.63 240.176 121.038 240.064 120.499 239.842C119.966 239.613 119.503 239.285 119.111 238.857C118.724 238.43 118.422 237.905 118.205 237.284C117.995 236.663 117.889 235.957 117.889 235.166C117.889 234.111 118.068 233.215 118.425 232.477C118.783 231.732 119.292 231.167 119.954 230.78C120.622 230.388 121.416 230.191 122.336 230.191C123.215 230.191 123.983 230.388 124.639 230.78C125.301 231.173 125.814 231.741 126.177 232.485C126.546 233.224 126.731 234.117 126.731 235.166ZM119.401 235.166C119.401 235.939 119.503 236.61 119.708 237.179C119.913 237.747 120.23 238.187 120.658 238.497C121.085 238.808 121.636 238.963 122.31 238.963C122.978 238.963 123.526 238.808 123.954 238.497C124.387 238.187 124.706 237.747 124.912 237.179C125.117 236.61 125.219 235.939 125.219 235.166C125.219 234.398 125.117 233.736 124.912 233.18C124.706 232.617 124.39 232.184 123.962 231.879C123.535 231.574 122.981 231.422 122.301 231.422C121.299 231.422 120.564 231.753 120.095 232.415C119.632 233.077 119.401 233.994 119.401 235.166ZM128.572 234.217C128.572 232.846 128.704 231.677 128.968 230.71C129.232 229.737 129.639 228.958 130.19 228.372C130.746 227.78 131.461 227.376 132.334 227.159C133.084 226.954 133.846 226.778 134.619 226.632C135.393 226.479 136.146 226.348 136.878 226.236L137.133 227.52C136.764 227.572 136.377 227.634 135.973 227.704C135.568 227.769 135.164 227.839 134.76 227.915C134.356 227.985 133.975 228.062 133.617 228.144C133.26 228.22 132.943 228.299 132.668 228.381C132.17 228.516 131.739 228.75 131.376 229.084C131.019 229.418 130.734 229.878 130.524 230.464C130.318 231.05 130.195 231.788 130.154 232.679H130.26C130.436 232.421 130.676 232.166 130.981 231.914C131.285 231.662 131.649 231.454 132.07 231.29C132.492 231.12 132.967 231.035 133.494 231.035C134.326 231.035 135.021 231.217 135.577 231.58C136.134 231.938 136.553 232.441 136.834 233.092C137.115 233.742 137.256 234.504 137.256 235.377C137.256 236.426 137.074 237.308 136.711 238.022C136.354 238.737 135.85 239.276 135.199 239.64C134.549 239.997 133.784 240.176 132.905 240.176C132.226 240.176 131.616 240.044 131.077 239.78C130.544 239.517 130.09 239.13 129.715 238.62C129.346 238.11 129.062 237.486 128.862 236.748C128.669 236.01 128.572 235.166 128.572 234.217ZM133.02 238.963C133.576 238.963 134.054 238.846 134.452 238.611C134.857 238.377 135.167 238.008 135.384 237.504C135.607 236.994 135.718 236.332 135.718 235.518C135.718 234.498 135.522 233.701 135.129 233.127C134.742 232.547 134.121 232.257 133.266 232.257C132.732 232.257 132.249 232.371 131.816 232.6C131.382 232.822 131.016 233.089 130.717 233.399C130.418 233.71 130.201 233.988 130.066 234.234C130.066 234.832 130.11 235.412 130.198 235.975C130.286 236.537 130.439 237.044 130.655 237.495C130.872 237.946 131.171 238.304 131.552 238.567C131.939 238.831 132.428 238.963 133.02 238.963ZM144.125 230.191C145.326 230.191 146.284 230.604 146.999 231.431C147.714 232.257 148.071 233.499 148.071 235.157C148.071 236.253 147.907 237.173 147.579 237.917C147.251 238.661 146.788 239.224 146.19 239.604C145.598 239.985 144.898 240.176 144.09 240.176C143.58 240.176 143.132 240.108 142.745 239.974C142.358 239.839 142.027 239.657 141.752 239.429C141.476 239.2 141.248 238.951 141.066 238.682H140.961C140.978 238.91 140.999 239.186 141.022 239.508C141.052 239.83 141.066 240.111 141.066 240.352V244.307H139.598V230.367H140.802L140.996 231.791H141.066C141.254 231.498 141.482 231.231 141.752 230.991C142.021 230.745 142.349 230.552 142.736 230.411C143.129 230.265 143.592 230.191 144.125 230.191ZM143.87 231.422C143.202 231.422 142.663 231.551 142.253 231.809C141.848 232.066 141.552 232.453 141.365 232.969C141.177 233.479 141.078 234.12 141.066 234.894V235.175C141.066 235.989 141.154 236.678 141.33 237.24C141.511 237.803 141.807 238.23 142.218 238.523C142.634 238.816 143.19 238.963 143.887 238.963C144.485 238.963 144.983 238.802 145.382 238.479C145.78 238.157 146.076 237.709 146.269 237.135C146.469 236.555 146.568 235.89 146.568 235.14C146.568 234.003 146.345 233.101 145.9 232.433C145.461 231.759 144.784 231.422 143.87 231.422ZM151.829 230.367V236.423C151.829 236.54 151.826 236.692 151.82 236.88C151.814 237.062 151.805 237.258 151.793 237.469C151.782 237.674 151.77 237.873 151.758 238.066C151.752 238.254 151.744 238.409 151.732 238.532L156.988 230.367H158.781V240H157.418V234.094C157.418 233.906 157.421 233.666 157.427 233.373C157.433 233.08 157.442 232.793 157.454 232.512C157.465 232.225 157.474 232.002 157.48 231.844L152.242 240H150.44V230.367H151.829ZM168.269 231.606H165.096V240H163.654V231.606H160.526V230.367H168.269V231.606ZM173.599 230.209C174.748 230.209 175.6 230.467 176.157 230.982C176.714 231.498 176.992 232.321 176.992 233.452V240H175.929L175.647 238.576H175.577C175.307 238.928 175.026 239.224 174.733 239.464C174.44 239.698 174.1 239.877 173.714 240C173.333 240.117 172.864 240.176 172.307 240.176C171.721 240.176 171.2 240.073 170.743 239.868C170.292 239.663 169.934 239.353 169.671 238.937C169.413 238.521 169.284 237.993 169.284 237.354C169.284 236.394 169.665 235.655 170.427 235.14C171.188 234.624 172.348 234.343 173.907 234.296L175.568 234.226V233.637C175.568 232.805 175.389 232.222 175.032 231.888C174.675 231.554 174.171 231.387 173.52 231.387C173.016 231.387 172.536 231.46 172.079 231.606C171.622 231.753 171.188 231.926 170.778 232.125L170.33 231.018C170.763 230.795 171.262 230.604 171.824 230.446C172.387 230.288 172.978 230.209 173.599 230.209ZM175.551 235.254L174.083 235.315C172.882 235.362 172.035 235.559 171.543 235.904C171.051 236.25 170.804 236.739 170.804 237.372C170.804 237.923 170.971 238.33 171.305 238.594C171.639 238.857 172.082 238.989 172.633 238.989C173.488 238.989 174.188 238.752 174.733 238.277C175.278 237.803 175.551 237.091 175.551 236.142V235.254ZM181.286 230.367V234.41H186.656V230.367H188.115V240H186.656V235.649H181.286V240H179.818V230.367H181.286ZM192.417 230.367V236.423C192.417 236.54 192.414 236.692 192.408 236.88C192.402 237.062 192.394 237.258 192.382 237.469C192.37 237.674 192.359 237.873 192.347 238.066C192.341 238.254 192.332 238.409 192.32 238.532L197.576 230.367H199.369V240H198.007V234.094C198.007 233.906 198.01 233.666 198.016 233.373C198.022 233.08 198.03 232.793 198.042 232.512C198.054 232.225 198.063 232.002 198.069 231.844L192.83 240H191.028V230.367H192.417ZM202.758 240H201.053L203.83 235.939C203.426 235.852 203.051 235.702 202.705 235.491C202.359 235.274 202.078 234.979 201.861 234.604C201.65 234.229 201.545 233.763 201.545 233.206C201.545 232.28 201.852 231.577 202.468 231.097C203.089 230.61 203.906 230.367 204.92 230.367H209.182V240H207.723V236.133H205.28L202.758 240ZM202.96 233.215C202.96 233.789 203.165 234.217 203.575 234.498C203.985 234.773 204.571 234.911 205.333 234.911H207.723V231.589H205.078C204.328 231.589 203.786 231.741 203.452 232.046C203.124 232.345 202.96 232.734 202.96 233.215Z" fill="black"/>
</symbol>

<symbol viewBox="0 0 361 263" id="symbol_us">
	<g clip-path="url(#clip2_1945_8508)">
	<path d="M52 222H20V244H52V222Z" fill="white"/>
	<path d="M52 224.75H20V227.499H52V224.75Z" fill="#D80027"/>
	<path d="M52 230.25H20V233H52V230.25Z" fill="#D80027"/>
	<path d="M52 235.749H20V238.499H52V235.749Z" fill="#D80027"/>
	<path d="M52 241.25H20V243.999H52V241.25Z" fill="#D80027"/>
	<path d="M36 222H20V233.846H36V222Z" fill="#2E52B2"/>
	<path d="M26.2396 226.853L25.9819 227.67H25.1484L25.8229 228.175L25.5652 228.993L26.2396 228.488L26.9136 228.993L26.656 228.175L27.3304 227.67H26.4969L26.2396 226.853Z" fill="#F0F0F0"/>
	<path d="M26.4969 230.62L26.2396 229.803L25.9819 230.62H25.1484L25.8229 231.125L25.5652 231.943L26.2396 231.438L26.9136 231.943L26.656 231.125L27.3304 230.62H26.4969Z" fill="#F0F0F0"/>
	<path d="M22.9735 230.62L22.7162 229.803L22.4585 230.62H21.625L22.2994 231.125L22.0417 231.943L22.7162 231.438L23.3902 231.943L23.1326 231.125L23.8069 230.62H22.9735Z" fill="#F0F0F0"/>
	<path d="M22.7162 226.853L22.4585 227.67H21.625L22.2994 228.175L22.0417 228.993L22.7162 228.488L23.3902 228.993L23.1326 228.175L23.8069 227.67H22.9735L22.7162 226.853Z" fill="#F0F0F0"/>
	<path d="M26.2396 223.903L25.9819 224.72H25.1484L25.8229 225.225L25.5652 226.043L26.2396 225.538L26.9136 226.043L26.656 225.225L27.3304 224.72H26.4969L26.2396 223.903Z" fill="#F0F0F0"/>
	<path d="M22.7162 223.903L22.4585 224.72H21.625L22.2994 225.225L22.0417 226.043L22.7162 225.538L23.3902 226.043L23.1326 225.225L23.8069 224.72H22.9735L22.7162 223.903Z" fill="#F0F0F0"/>
	<path d="M29.761 226.853L29.5034 227.67H28.6699L29.3443 228.175L29.0867 228.993L29.761 228.488L30.4352 228.993L30.1775 228.175L30.8519 227.67H30.0184L29.761 226.853Z" fill="#F0F0F0"/>
	<path d="M30.0184 230.62L29.761 229.803L29.5034 230.62H28.6699L29.3443 231.125L29.0867 231.943L29.761 231.438L30.4352 231.943L30.1775 231.125L30.8519 230.62H30.0184Z" fill="#F0F0F0"/>
	<path d="M33.5418 230.62L33.2845 229.803L33.0268 230.62H32.1934L32.8677 231.125L32.61 231.943L33.2845 231.438L33.9585 231.943L33.7009 231.125L34.3753 230.62H33.5418Z" fill="#F0F0F0"/>
	<path d="M33.2845 226.853L33.0268 227.67H32.1934L32.8677 228.175L32.61 228.993L33.2845 228.488L33.9585 228.993L33.7009 228.175L34.3753 227.67H33.5418L33.2845 226.853Z" fill="#F0F0F0"/>
	<path d="M29.761 223.903L29.5034 224.72H28.6699L29.3443 225.225L29.0867 226.043L29.761 225.538L30.4352 226.043L30.1775 225.225L30.8519 224.72H30.0184L29.761 223.903Z" fill="#F0F0F0"/>
	<path d="M33.2845 223.903L33.0268 224.72H32.1934L32.8677 225.225L32.61 226.043L33.2845 225.538L33.9585 226.043L33.7009 225.225L34.3753 224.72H33.5418L33.2845 223.903Z" fill="#F0F0F0"/>
	</g>
	<rect x="19.5" y="221.5" width="33" height="23" rx="3.5" stroke="#D9D8DD" fill="transparent"/>
	<path d="M72.251 228.284C71.542 228.284 70.9033 228.407 70.335 228.653C69.7725 228.894 69.292 229.245 68.8936 229.708C68.501 230.165 68.1992 230.719 67.9883 231.369C67.7773 232.02 67.6719 232.752 67.6719 233.566C67.6719 234.645 67.8389 235.582 68.1729 236.379C68.5127 237.17 69.0166 237.782 69.6846 238.216C70.3584 238.649 71.1992 238.866 72.207 238.866C72.7812 238.866 73.3203 238.819 73.8242 238.726C74.334 238.626 74.8291 238.503 75.3096 238.356V239.657C74.8408 239.833 74.3486 239.962 73.833 240.044C73.3174 240.132 72.7051 240.176 71.9961 240.176C70.6895 240.176 69.5967 239.906 68.7178 239.367C67.8447 238.822 67.1885 238.055 66.749 237.064C66.3154 236.074 66.0986 234.905 66.0986 233.558C66.0986 232.585 66.2334 231.697 66.5029 230.895C66.7783 230.086 67.1768 229.389 67.6982 228.803C68.2256 228.217 68.8701 227.766 69.6318 227.449C70.3994 227.127 71.2783 226.966 72.2686 226.966C72.9189 226.966 73.5459 227.03 74.1494 227.159C74.7529 227.288 75.2979 227.473 75.7842 227.713L75.1865 228.979C74.7764 228.791 74.3252 228.63 73.833 228.495C73.3467 228.354 72.8193 228.284 72.251 228.284ZM92.9538 240H77.9157V227.15H79.4098V238.664H84.6745V227.15H86.1686V238.664H91.4421V227.15H92.9538V240ZM104.375 240L102.793 235.922H97.6429L96.0697 240H94.558L99.5853 227.098H100.93L105.922 240H104.375ZM102.345 234.595L100.842 230.543C100.807 230.438 100.748 230.265 100.666 230.024C100.59 229.784 100.511 229.535 100.429 229.277C100.347 229.02 100.28 228.812 100.227 228.653C100.168 228.894 100.104 229.134 100.034 229.374C99.9691 229.608 99.9046 229.828 99.8402 230.033C99.7757 230.232 99.7201 230.402 99.6732 230.543L98.1439 234.595H102.345Z" fill="black"/>
</symbol>

<use id="use_white" xlink:href="#symbol_popup" width="361" height="263" x="0" y="0"></use>
<use id="use_grey" xlink:href="#symbol_popup" width="361" height="263" x="500" y="0"></use>
<use id="use_white" xlink:href="#symbol_popup" width="361" height="263" x="1000" y="0"></use>
<use id="use_grey" xlink:href="#symbol_popup" width="361" height="263" x="1500" y="0"></use>

<use xlink:href="#symbol_uk" width="361" height="263" x="0" y="0"></use>
<use xlink:href="#symbol_uk" width="361" height="263" x="500" y="0"></use>
<use xlink:href="#symbol_us" width="361" height="263" x="1000" y="0"></use>
<use xlink:href="#symbol_us" width="361" height="263" x="1500" y="0"></use>

<view id="uk" width="361" height="263" viewBox="0 0 361 263" />
<view id="uk_hover" width="361" height="263" viewBox="500 0 361 263" />
<view id="us" width="361" height="263" viewBox="1000 0 361 263" />
<view id="us_hover" width="361" height="263" viewBox="1500 0 361 263" />
</svg>
