<svg width="366" height="269" viewBox="0 0 366 269" fill="none" xmlns="http://www.w3.org/2000/svg">
<circle cx="179" cy="68" r="56" fill="#EBEBEB"/>
<path d="M179 118C206.614 118 229 95.6142 229 68C229 40.3858 206.614 18 179 18C151.386 18 129 40.3858 129 68C129 95.6142 151.386 118 179 118Z" fill="#A2A2A2"/>
<path d="M179 114.97C204.941 114.97 225.97 93.9406 225.97 68C225.97 42.0593 204.941 21.0303 179 21.0303C153.059 21.0303 132.03 42.0593 132.03 68C132.03 93.9406 153.059 114.97 179 114.97Z" fill="#B5B6B6"/>
<path fill-rule="evenodd" clip-rule="evenodd" d="M204.956 46.3482C207.355 45.3302 209.601 44.1723 211.668 42.8897C213.337 41.8536 214.905 40.7241 216.345 39.5096C215.732 38.7068 215.093 37.9244 214.431 37.1635C211.56 39.5881 208.059 41.7073 204.077 43.4279C201.117 34.3319 196.563 27.007 191.073 22.5965C187.221 21.5748 183.174 21.0303 179 21.0303C174.826 21.0303 170.779 21.5748 166.926 22.5965C161.437 27.007 156.883 34.3319 153.922 43.4279C149.941 41.7073 146.44 39.5881 143.569 37.1635C142.907 37.9244 142.268 38.7068 141.655 39.5096C143.095 40.7241 144.663 41.8536 146.332 42.8897C148.399 44.1723 150.645 45.3302 153.044 46.3482C151.348 52.4714 150.348 59.2871 150.225 66.4848H132.054C132.038 66.9879 132.03 67.493 132.03 68C132.03 68.5069 132.038 69.012 132.054 69.5151H150.225C150.348 76.7129 151.348 83.5286 153.044 89.6517C150.645 90.6697 148.399 91.8276 146.332 93.1103C144.663 94.1464 143.095 95.2758 141.655 96.4903C142.268 97.2931 142.907 98.0756 143.569 98.8365C146.44 96.4119 149.941 94.2927 153.922 92.5721C156.883 101.668 161.437 108.993 166.926 113.403C170.779 114.425 174.826 114.97 179 114.97C183.174 114.97 187.221 114.425 191.074 113.403C196.563 108.993 201.117 101.668 204.077 92.5721C208.059 94.2927 211.56 96.4119 214.431 98.8365C215.093 98.0756 215.732 97.2931 216.345 96.4903C214.905 95.2758 213.337 94.1464 211.668 93.1103C209.601 91.8276 207.355 90.6697 204.956 89.6517C206.652 83.5286 207.652 76.7129 207.775 69.5151H225.946C225.962 69.012 225.97 68.5069 225.97 68C225.97 67.493 225.962 66.9879 225.946 66.4848H207.775C207.652 59.2871 206.652 52.4714 204.956 46.3482ZM204.744 69.5151C204.623 76.3443 203.686 82.778 202.119 88.5386C195.68 86.21 188.317 84.8395 180.515 84.6819V69.5151H204.744ZM201.256 91.4492C195.136 89.2135 188.067 87.8717 180.515 87.7128V114.885C186.402 114.229 192.173 109.757 196.73 101.843C198.487 98.7909 200.017 95.2949 201.256 91.4492ZM177.485 114.885V87.7128C169.933 87.8717 162.864 89.2135 156.744 91.4492C157.983 95.2949 159.513 98.7909 161.27 101.843C165.827 109.757 171.598 114.229 177.485 114.885ZM155.881 88.5386C162.32 86.21 169.683 84.8395 177.485 84.6819V69.5151H153.256C153.377 76.3443 154.314 82.778 155.881 88.5386ZM155.881 47.4613C154.314 53.2219 153.377 59.6556 153.256 66.4848H177.485V51.318C169.683 51.1605 162.32 49.79 155.881 47.4613ZM177.485 48.2871C169.933 48.1282 162.864 46.7864 156.744 44.5508C157.983 40.7051 159.513 37.2091 161.27 34.1566C165.827 26.2425 171.598 21.7712 177.485 21.1148V48.2871ZM180.515 48.2871V21.1148C186.402 21.7712 192.173 26.2425 196.73 34.1566C198.487 37.2091 200.017 40.7051 201.256 44.5508C195.136 46.7864 188.067 48.1282 180.515 48.2871ZM180.515 51.318C188.317 51.1605 195.68 49.79 202.119 47.4613C203.686 53.2219 204.623 59.6556 204.744 66.4848H180.515V51.318Z" fill="#A2A2A2"/>
<path opacity="0.1" fill-rule="evenodd" clip-rule="evenodd" d="M179 118V18C206.614 18 229 40.3858 229 68C229 95.6142 206.614 118 179 118Z" fill="white"/>
<path d="M179.297 51.0445C179.1 51.015 178.9 51.015 178.703 51.0445L160.703 53.7445C159.724 53.8914 159 54.7324 159 55.7224V58.1812C159 58.9813 159.477 59.7043 160.212 60.0195L161.581 60.6061C162.138 60.8451 162.5 61.3933 162.5 62V62C162.5 62.6067 162.138 63.1549 161.581 63.3939L160.212 63.9805C159.477 64.2957 159 65.0187 159 65.8188V75.8197C159 75.9396 159.009 76.0549 159.034 76.1724C159.801 79.8643 164.582 88.786 177.993 96.902C178.61 97.2753 179.39 97.2753 180.007 96.902C193.418 88.786 198.199 79.8643 198.966 76.1724C198.991 76.0549 199 75.9396 199 75.8197V65.8188C199 65.0187 198.523 64.2957 197.788 63.9805L196.419 63.3939C195.862 63.1549 195.5 62.6067 195.5 62V62C195.5 61.3933 195.862 60.8451 196.419 60.6061L197.788 60.0195C198.523 59.7043 199 58.9813 199 58.1812V55.7224C199 54.7324 198.276 53.8914 197.297 53.7445L179.297 51.0445Z" fill="#6B6B6B"/>
<path d="M179.298 52.0448C179.1 52.0151 178.9 52.0151 178.702 52.0448L162.702 54.4534C161.724 54.6007 161 55.4415 161 56.4311V58.3605C161 59.1596 161.476 59.882 162.21 60.1978L163.32 60.6754C163.824 60.8919 164.15 61.3874 164.15 61.9355V61.9355C164.15 62.4836 163.824 62.979 163.32 63.1956L162.21 63.6732C161.476 63.989 161 64.7114 161 65.5105V74.4009C161 74.5205 161.009 74.6359 161.034 74.7529C161.733 78.0881 166.02 86.0962 177.993 93.3981C178.61 93.7746 179.39 93.7746 180.007 93.3981C191.98 86.0962 196.267 78.0881 196.966 74.7529C196.991 74.6359 197 74.5205 197 74.4009V65.5105C197 64.7114 196.524 63.989 195.79 63.6732L194.68 63.1956C194.176 62.979 193.85 62.4836 193.85 61.9355V61.9355C193.85 61.3874 194.176 60.8919 194.68 60.6754L195.79 60.1978C196.524 59.882 197 59.1596 197 58.3605V56.4311C197 55.4415 196.276 54.6007 195.298 54.4534L179.298 52.0448Z" fill="#787878"/>
<path d="M186 63C186 59.134 182.866 56 179 56C175.134 56 172 59.134 172 63V69C170.896 69 170 69.8954 170 71V80C170 81.1046 170.896 82 172 82H186C187.104 82 188 81.1046 188 80V71C188 69.8954 187.104 69 186 69H176V63C176 61.3431 177.343 60 179 60C180.657 60 182 61.3431 182 63V65C182 65.5523 182.448 66 183 66H185C185.552 66 186 65.5523 186 65V63Z" fill="#D55B4E"/>
<path opacity="0.2" d="M179 97.1596C179.349 97.1596 179.698 97.0662 180.007 96.8796C193.418 88.7636 198.199 79.8419 198.966 76.15C198.991 76.0326 199 75.9173 199 75.7973V65.7964C199 64.9964 198.523 64.2733 197.788 63.9581L196.419 63.3715C195.862 63.1326 195.5 62.5843 195.5 61.9776C195.5 61.371 195.862 60.8227 196.419 60.5837L197.788 59.9971C198.523 59.682 199 58.9589 199 58.1588V55.7C199 54.71 198.276 53.869 197.297 53.7221L179.297 51.0221C179.198 51.0074 179.099 51 179 51V97.1596Z" fill="white"/>
<path opacity="0.1" fill-rule="evenodd" clip-rule="evenodd" d="M193.567 85.6806L173.666 51.8001L178.703 51.0446C178.9 51.0151 179.1 51.0151 179.296 51.0446L184.082 51.7624L198.803 76.8248C198.216 78.8672 196.642 82.043 193.567 85.6806Z" fill="white"/>
<g filter="url(#filter0_d_1941_6337)">
<path d="M157.634 29.2917C157.627 29.2917 157.623 29.2917 157.616 29.2917C157.334 25.2211 153.632 22 149.11 22C144.936 22 141.464 24.7428 140.729 28.3619C140.634 28.3585 140.535 28.3552 140.44 28.3552C137.33 28.3552 134.707 30.2383 133.851 32.8239C133.719 32.8139 133.584 32.8071 133.449 32.8071C130.994 32.8071 129 34.6267 129 36.8745C129 39.1222 130.99 40.9418 133.445 40.9418C133.482 40.9418 157.631 40.9418 157.631 40.9418C161.15 40.9418 164 38.3328 164 35.1184C164 31.904 161.154 29.2917 157.634 29.2917Z" fill="white"/>
<path d="M229.907 55.8334C229.902 55.8334 229.899 55.8334 229.893 55.8334C229.668 52.5769 226.706 50 223.088 50C219.749 50 216.971 52.1942 216.383 55.0895C216.307 55.0868 216.228 55.0841 216.152 55.0841C213.664 55.0841 211.566 56.5907 210.881 58.6591C210.775 58.6511 210.667 58.6457 210.559 58.6457C208.595 58.6457 207 60.1014 207 61.8996C207 63.6978 208.592 65.1535 210.556 65.1535C210.585 65.1535 229.905 65.1535 229.905 65.1535C232.72 65.1535 235 63.0663 235 60.4947C235 57.9232 232.723 55.8334 229.907 55.8334Z" fill="white"/>
<path d="M160.907 106.833C160.902 106.833 160.899 106.833 160.893 106.833C160.668 103.577 157.706 101 154.088 101C150.749 101 147.971 103.194 147.383 106.089C147.307 106.087 147.228 106.084 147.152 106.084C144.664 106.084 142.566 107.591 141.881 109.659C141.775 109.651 141.667 109.646 141.559 109.646C139.595 109.646 138 111.101 138 112.9C138 114.698 139.592 116.153 141.556 116.153C141.585 116.153 160.905 116.153 160.905 116.153C163.72 116.153 166 114.066 166 111.495C166 108.923 163.723 106.833 160.907 106.833Z" fill="white"/>
</g>
<g clip-path="url(#clip0_1941_6337)">
<path d="M349.567 19.9766C349.602 19.6559 349.625 19.3308 349.625 19.0001C349.625 18.6693 349.602 18.3442 349.566 18.023L347.104 17.1472C346.981 16.7444 346.82 16.3597 346.625 15.9941L347.746 13.6361C347.338 13.1247 346.874 12.6605 346.363 12.2523L344.005 13.3751C343.638 13.1778 343.251 13.0176 342.852 12.8969L341.977 10.4343C341.656 10.3983 341.331 10.3752 341 10.3752C340.669 10.3752 340.344 10.3977 340.023 10.4343L339.148 12.8969C338.745 13.019 338.36 13.1793 337.994 13.3751L335.636 12.2523C335.124 12.6601 334.66 13.1242 334.252 13.6361L335.375 15.9929C335.179 16.3586 335.019 16.7439 334.897 17.1461L332.434 18.0236C332.398 18.3442 332.375 18.6704 332.375 19.0006C332.375 19.3308 332.398 19.6559 332.434 19.9771L334.897 20.8535C335.019 21.2557 335.179 21.641 335.375 22.0066L334.253 24.3646C334.66 24.8765 335.125 25.3394 335.636 25.7472L337.993 24.6251C338.358 24.8208 338.744 24.9817 339.146 25.1043L340.022 27.5664C340.343 27.6018 340.668 27.6243 340.999 27.6243C341.33 27.6243 341.655 27.6018 341.976 27.5658L342.852 25.1032C343.254 24.9806 343.64 24.8197 344.005 24.6251L346.363 25.7456C346.875 25.3377 347.338 24.8737 347.746 24.3629L346.625 22.0055C346.821 21.6416 346.981 21.2551 347.104 20.8524L349.566 19.9766H349.567ZM341 21.7394C340.64 21.7395 340.284 21.6687 339.951 21.5311C339.619 21.3935 339.317 21.1917 339.062 20.9373C338.548 20.4236 338.259 19.7267 338.259 19.0001C338.259 18.2734 338.548 17.5764 339.061 17.0625C339.575 16.5485 340.272 16.2597 340.999 16.2596C341.725 16.2594 342.422 16.5479 342.936 17.0617C343.45 17.5754 343.739 18.2723 343.739 18.9989C343.739 19.7256 343.451 20.4226 342.937 20.9365C342.423 21.4505 341.726 21.7393 341 21.7394Z" fill="#7F7F7F"/>
</g>
<rect x="321.5" y="0.5" width="37" height="37" rx="2.5" stroke="#BCBCBC"/>
<circle cx="321" cy="38" r="10" fill="#3B9946" stroke="white" stroke-width="4"/>
<path d="M94.666 171.888C94.1146 171.888 93.6178 171.983 93.1758 172.175C92.7383 172.362 92.3646 172.635 92.0547 172.995C91.7493 173.351 91.5146 173.781 91.3506 174.287C91.1865 174.793 91.1045 175.363 91.1045 175.996C91.1045 176.835 91.2344 177.564 91.4941 178.184C91.7585 178.799 92.1504 179.275 92.6699 179.612C93.194 179.95 93.848 180.118 94.6318 180.118C95.0785 180.118 95.4977 180.082 95.8896 180.009C96.2861 179.931 96.6712 179.836 97.0449 179.722V180.733C96.6803 180.87 96.2975 180.97 95.8965 181.034C95.4954 181.103 95.0192 181.137 94.4678 181.137C93.4515 181.137 92.6016 180.927 91.918 180.508C91.2389 180.084 90.7285 179.487 90.3867 178.717C90.0495 177.947 89.8809 177.037 89.8809 175.989C89.8809 175.233 89.9857 174.542 90.1953 173.918C90.4095 173.289 90.7194 172.747 91.125 172.291C91.5352 171.835 92.0365 171.484 92.6289 171.238C93.2259 170.988 93.9095 170.862 94.6797 170.862C95.1855 170.862 95.6732 170.912 96.1426 171.013C96.612 171.113 97.0358 171.257 97.4141 171.443L96.9492 172.428C96.6302 172.282 96.2793 172.157 95.8965 172.052C95.5182 171.942 95.1081 171.888 94.666 171.888ZM105.501 177.24C105.501 177.855 105.421 178.405 105.262 178.888C105.102 179.371 104.872 179.779 104.571 180.111C104.271 180.444 103.906 180.699 103.478 180.877C103.054 181.05 102.573 181.137 102.035 181.137C101.534 181.137 101.074 181.05 100.654 180.877C100.24 180.699 99.8796 180.444 99.5742 180.111C99.2734 179.779 99.0387 179.371 98.8701 178.888C98.7061 178.405 98.624 177.855 98.624 177.24C98.624 176.42 98.763 175.723 99.041 175.148C99.319 174.57 99.7155 174.13 100.23 173.829C100.75 173.524 101.368 173.371 102.083 173.371C102.767 173.371 103.364 173.524 103.874 173.829C104.389 174.134 104.788 174.576 105.07 175.155C105.357 175.729 105.501 176.424 105.501 177.24ZM99.7998 177.24C99.7998 177.842 99.8796 178.364 100.039 178.806C100.199 179.248 100.445 179.59 100.777 179.831C101.11 180.073 101.538 180.193 102.062 180.193C102.582 180.193 103.008 180.073 103.341 179.831C103.678 179.59 103.926 179.248 104.086 178.806C104.245 178.364 104.325 177.842 104.325 177.24C104.325 176.643 104.245 176.128 104.086 175.695C103.926 175.258 103.68 174.921 103.348 174.684C103.015 174.447 102.584 174.328 102.056 174.328C101.276 174.328 100.704 174.586 100.34 175.101C99.9798 175.616 99.7998 176.329 99.7998 177.24ZM110.348 173.371C110.986 173.371 111.533 173.512 111.988 173.795C112.444 174.077 112.793 174.474 113.034 174.984C113.276 175.49 113.396 176.083 113.396 176.762V177.466H108.222C108.235 178.345 108.454 179.015 108.878 179.476C109.302 179.936 109.899 180.166 110.669 180.166C111.143 180.166 111.562 180.123 111.927 180.036C112.291 179.95 112.67 179.822 113.062 179.653V180.651C112.683 180.82 112.307 180.943 111.934 181.021C111.564 181.098 111.127 181.137 110.621 181.137C109.901 181.137 109.272 180.991 108.734 180.699C108.201 180.403 107.786 179.97 107.49 179.4C107.194 178.831 107.046 178.133 107.046 177.309C107.046 176.502 107.18 175.805 107.449 175.217C107.723 174.624 108.105 174.169 108.598 173.85C109.094 173.531 109.678 173.371 110.348 173.371ZM110.334 174.301C109.728 174.301 109.245 174.499 108.885 174.896C108.525 175.292 108.311 175.846 108.242 176.557H112.207C112.202 176.11 112.132 175.718 111.995 175.381C111.863 175.039 111.66 174.775 111.387 174.588C111.113 174.396 110.762 174.301 110.334 174.301ZM120.813 173.508V180.036H121.887V183.591H120.786V181H115.481V183.591H114.395V180.036H114.982C115.411 179.444 115.766 178.794 116.049 178.088C116.331 177.382 116.546 176.641 116.691 175.866C116.837 175.087 116.915 174.301 116.924 173.508H120.813ZM119.713 174.41H117.936C117.895 175.076 117.797 175.752 117.642 176.44C117.491 177.129 117.291 177.785 117.04 178.409C116.789 179.029 116.498 179.571 116.165 180.036H119.713V174.41ZM124.457 173.508V178.218C124.457 178.309 124.455 178.427 124.45 178.573C124.446 178.715 124.439 178.867 124.43 179.031C124.421 179.191 124.411 179.346 124.402 179.496C124.398 179.642 124.391 179.763 124.382 179.858L128.47 173.508H129.864V181H128.805V176.406C128.805 176.26 128.807 176.074 128.812 175.846C128.816 175.618 128.823 175.395 128.832 175.176C128.841 174.952 128.848 174.779 128.853 174.656L124.778 181H123.377V173.508H124.457ZM133.419 173.508V176.652H137.596V173.508H138.73V181H137.596V177.616H133.419V181H132.277V173.508H133.419ZM144.021 173.371C144.66 173.371 145.206 173.512 145.662 173.795C146.118 174.077 146.466 174.474 146.708 174.984C146.95 175.49 147.07 176.083 147.07 176.762V177.466H141.896C141.909 178.345 142.128 179.015 142.552 179.476C142.976 179.936 143.573 180.166 144.343 180.166C144.817 180.166 145.236 180.123 145.601 180.036C145.965 179.95 146.343 179.822 146.735 179.653V180.651C146.357 180.82 145.981 180.943 145.607 181.021C145.238 181.098 144.801 181.137 144.295 181.137C143.575 181.137 142.946 180.991 142.408 180.699C141.875 180.403 141.46 179.97 141.164 179.4C140.868 178.831 140.72 178.133 140.72 177.309C140.72 176.502 140.854 175.805 141.123 175.217C141.396 174.624 141.779 174.169 142.271 173.85C142.768 173.531 143.352 173.371 144.021 173.371ZM144.008 174.301C143.402 174.301 142.919 174.499 142.559 174.896C142.199 175.292 141.984 175.846 141.916 176.557H145.881C145.876 176.11 145.806 175.718 145.669 175.381C145.537 175.039 145.334 174.775 145.061 174.588C144.787 174.396 144.436 174.301 144.008 174.301ZM150.14 173.508V176.652H154.316V173.508H155.451V181H154.316V177.616H150.14V181H148.998V173.508H150.14ZM158.938 173.508V178.218C158.938 178.309 158.935 178.427 158.931 178.573C158.926 178.715 158.919 178.867 158.91 179.031C158.901 179.191 158.892 179.346 158.883 179.496C158.878 179.642 158.871 179.763 158.862 179.858L162.95 173.508H164.345V181H163.285V176.406C163.285 176.26 163.287 176.074 163.292 175.846C163.297 175.618 163.303 175.395 163.312 175.176C163.322 174.952 163.328 174.779 163.333 174.656L159.259 181H157.857V173.508H158.938ZM169.643 173.371C170.281 173.371 170.827 173.512 171.283 173.795C171.739 174.077 172.088 174.474 172.329 174.984C172.571 175.49 172.691 176.083 172.691 176.762V177.466H167.517C167.53 178.345 167.749 179.015 168.173 179.476C168.597 179.936 169.194 180.166 169.964 180.166C170.438 180.166 170.857 180.123 171.222 180.036C171.586 179.95 171.965 179.822 172.356 179.653V180.651C171.978 180.82 171.602 180.943 171.229 181.021C170.859 181.098 170.422 181.137 169.916 181.137C169.196 181.137 168.567 180.991 168.029 180.699C167.496 180.403 167.081 179.97 166.785 179.4C166.489 178.831 166.341 178.133 166.341 177.309C166.341 176.502 166.475 175.805 166.744 175.217C167.018 174.624 167.4 174.169 167.893 173.85C168.389 173.531 168.973 173.371 169.643 173.371ZM169.629 174.301C169.023 174.301 168.54 174.499 168.18 174.896C167.82 175.292 167.605 175.846 167.537 176.557H171.502C171.497 176.11 171.427 175.718 171.29 175.381C171.158 175.039 170.955 174.775 170.682 174.588C170.408 174.396 170.057 174.301 169.629 174.301ZM179.397 173.508V176.652H183.574V173.508H184.709V181H183.574V177.616H179.397V181H178.256V173.508H179.397ZM190 173.371C190.638 173.371 191.185 173.512 191.641 173.795C192.096 174.077 192.445 174.474 192.687 174.984C192.928 175.49 193.049 176.083 193.049 176.762V177.466H187.874C187.888 178.345 188.106 179.015 188.53 179.476C188.954 179.936 189.551 180.166 190.321 180.166C190.795 180.166 191.215 180.123 191.579 180.036C191.944 179.95 192.322 179.822 192.714 179.653V180.651C192.336 180.82 191.96 180.943 191.586 181.021C191.217 181.098 190.779 181.137 190.273 181.137C189.553 181.137 188.924 180.991 188.387 180.699C187.854 180.403 187.439 179.97 187.143 179.4C186.846 178.831 186.698 178.133 186.698 177.309C186.698 176.502 186.833 175.805 187.102 175.217C187.375 174.624 187.758 174.169 188.25 173.85C188.747 173.531 189.33 173.371 190 173.371ZM189.986 174.301C189.38 174.301 188.897 174.499 188.537 174.896C188.177 175.292 187.963 175.846 187.895 176.557H191.859C191.855 176.11 191.784 175.718 191.647 175.381C191.515 175.039 191.312 174.775 191.039 174.588C190.766 174.396 190.415 174.301 189.986 174.301ZM208.662 173.508V181H198.613V173.508H199.748V180.036H203.063V173.508H204.205V180.036H207.527V173.508H208.662ZM212.148 173.508V178.218C212.148 178.309 212.146 178.427 212.142 178.573C212.137 178.715 212.13 178.867 212.121 179.031C212.112 179.191 212.103 179.346 212.094 179.496C212.089 179.642 212.082 179.763 212.073 179.858L216.161 173.508H217.556V181H216.496V176.406C216.496 176.26 216.498 176.074 216.503 175.846C216.507 175.618 216.514 175.395 216.523 175.176C216.533 174.952 216.539 174.779 216.544 174.656L212.47 181H211.068V173.508H212.148ZM224.323 170.363V173.398C225.066 173.462 225.713 173.656 226.265 173.979C226.816 174.299 227.244 174.734 227.55 175.285C227.855 175.837 228.008 176.493 228.008 177.254C228.008 178.001 227.86 178.653 227.563 179.209C227.272 179.765 226.85 180.205 226.299 180.528C225.752 180.852 225.093 181.046 224.323 181.109V184.363H223.216V181.109C222.473 181.055 221.826 180.868 221.274 180.549C220.728 180.225 220.301 179.785 219.996 179.229C219.691 178.674 219.538 178.015 219.538 177.254C219.538 176.493 219.684 175.837 219.976 175.285C220.272 174.729 220.696 174.292 221.247 173.973C221.799 173.649 222.466 173.458 223.25 173.398V170.363H224.323ZM223.25 174.342C222.671 174.392 222.195 174.538 221.821 174.779C221.448 175.021 221.17 175.349 220.987 175.764C220.81 176.178 220.721 176.675 220.721 177.254C220.721 177.833 220.812 178.332 220.994 178.751C221.176 179.166 221.454 179.494 221.828 179.735C222.202 179.977 222.676 180.125 223.25 180.18V174.342ZM224.323 174.355V180.18C224.897 180.12 225.369 179.968 225.738 179.722C226.112 179.476 226.388 179.145 226.565 178.73C226.748 178.316 226.839 177.824 226.839 177.254C226.839 176.388 226.632 175.711 226.217 175.224C225.802 174.731 225.171 174.442 224.323 174.355ZM233.511 173.371C234.445 173.371 235.19 173.692 235.746 174.335C236.302 174.978 236.58 175.944 236.58 177.233C236.58 178.086 236.452 178.801 236.197 179.38C235.942 179.959 235.582 180.396 235.117 180.692C234.657 180.989 234.112 181.137 233.483 181.137C233.087 181.137 232.738 181.084 232.438 180.979C232.137 180.875 231.879 180.733 231.665 180.556C231.451 180.378 231.273 180.184 231.132 179.975H231.05C231.063 180.152 231.079 180.367 231.098 180.617C231.12 180.868 231.132 181.087 231.132 181.273V184.35H229.99V173.508H230.927L231.077 174.615H231.132C231.278 174.387 231.455 174.18 231.665 173.993C231.875 173.802 232.13 173.651 232.431 173.542C232.736 173.428 233.096 173.371 233.511 173.371ZM233.312 174.328C232.793 174.328 232.374 174.428 232.055 174.629C231.74 174.829 231.51 175.13 231.364 175.531C231.218 175.928 231.141 176.427 231.132 177.028V177.247C231.132 177.881 231.2 178.416 231.337 178.854C231.478 179.291 231.708 179.624 232.027 179.852C232.351 180.079 232.784 180.193 233.326 180.193C233.791 180.193 234.178 180.068 234.488 179.817C234.798 179.567 235.028 179.218 235.179 178.771C235.334 178.32 235.411 177.803 235.411 177.22C235.411 176.336 235.238 175.634 234.892 175.114C234.55 174.59 234.023 174.328 233.312 174.328ZM237.38 173.508H238.597L240.251 177.855C240.347 178.111 240.436 178.357 240.518 178.594C240.6 178.826 240.673 179.049 240.736 179.264C240.8 179.478 240.85 179.685 240.887 179.886H240.935C240.998 179.658 241.09 179.359 241.208 178.99C241.326 178.617 241.454 178.236 241.591 177.849L243.156 173.508H244.38L241.119 182.101C240.946 182.561 240.743 182.962 240.511 183.304C240.283 183.646 240.005 183.908 239.677 184.09C239.349 184.277 238.952 184.37 238.487 184.37C238.273 184.37 238.084 184.356 237.92 184.329C237.756 184.306 237.615 184.279 237.496 184.247V183.338C237.596 183.361 237.717 183.381 237.858 183.399C238.004 183.418 238.155 183.427 238.31 183.427C238.592 183.427 238.836 183.372 239.041 183.263C239.251 183.158 239.431 183.003 239.581 182.798C239.731 182.593 239.861 182.349 239.971 182.066L240.381 181.014L237.38 173.508ZM248.461 173.371C249.099 173.371 249.646 173.512 250.102 173.795C250.557 174.077 250.906 174.474 251.147 174.984C251.389 175.49 251.51 176.083 251.51 176.762V177.466H246.335C246.349 178.345 246.567 179.015 246.991 179.476C247.415 179.936 248.012 180.166 248.782 180.166C249.256 180.166 249.675 180.123 250.04 180.036C250.405 179.95 250.783 179.822 251.175 179.653V180.651C250.797 180.82 250.421 180.943 250.047 181.021C249.678 181.098 249.24 181.137 248.734 181.137C248.014 181.137 247.385 180.991 246.848 180.699C246.314 180.403 245.9 179.97 245.604 179.4C245.307 178.831 245.159 178.133 245.159 177.309C245.159 176.502 245.294 175.805 245.562 175.217C245.836 174.624 246.219 174.169 246.711 173.85C247.208 173.531 247.791 173.371 248.461 173.371ZM248.447 174.301C247.841 174.301 247.358 174.499 246.998 174.896C246.638 175.292 246.424 175.846 246.355 176.557H250.32C250.316 176.11 250.245 175.718 250.108 175.381C249.976 175.039 249.773 174.775 249.5 174.588C249.227 174.396 248.876 174.301 248.447 174.301ZM258.544 174.472H256.076V181H254.955V174.472H252.521V173.508H258.544V174.472ZM263.028 181.137C262.354 181.137 261.759 180.998 261.244 180.72C260.729 180.442 260.328 180.018 260.041 179.448C259.754 178.879 259.61 178.161 259.61 177.295C259.61 176.388 259.761 175.647 260.062 175.073C260.367 174.494 260.786 174.066 261.319 173.788C261.853 173.51 262.459 173.371 263.138 173.371C263.511 173.371 263.871 173.41 264.218 173.487C264.569 173.56 264.856 173.654 265.079 173.768L264.737 174.718C264.509 174.627 264.245 174.545 263.944 174.472C263.648 174.399 263.37 174.362 263.11 174.362C262.591 174.362 262.158 174.474 261.812 174.697C261.47 174.921 261.212 175.249 261.039 175.682C260.87 176.115 260.786 176.648 260.786 177.281C260.786 177.887 260.868 178.405 261.032 178.833C261.201 179.261 261.449 179.59 261.777 179.817C262.11 180.041 262.525 180.152 263.021 180.152C263.418 180.152 263.776 180.111 264.095 180.029C264.414 179.943 264.703 179.842 264.963 179.729V180.74C264.712 180.868 264.432 180.966 264.122 181.034C263.817 181.103 263.452 181.137 263.028 181.137ZM267.103 181H265.776L267.937 177.842C267.622 177.773 267.33 177.657 267.062 177.493C266.793 177.325 266.574 177.094 266.405 176.803C266.241 176.511 266.159 176.149 266.159 175.716C266.159 174.996 266.398 174.449 266.877 174.075C267.36 173.697 267.996 173.508 268.784 173.508H272.1V181H270.965V177.992H269.064L267.103 181ZM267.26 175.723C267.26 176.169 267.419 176.502 267.738 176.721C268.057 176.935 268.513 177.042 269.105 177.042H270.965V174.458H268.907C268.324 174.458 267.902 174.576 267.643 174.813C267.387 175.046 267.26 175.349 267.26 175.723ZM274.321 180.289C274.321 179.97 274.399 179.744 274.554 179.612C274.709 179.476 274.898 179.407 275.121 179.407C275.354 179.407 275.549 179.476 275.709 179.612C275.868 179.744 275.948 179.97 275.948 180.289C275.948 180.604 275.868 180.834 275.709 180.979C275.549 181.121 275.354 181.191 275.121 181.191C274.898 181.191 274.709 181.121 274.554 180.979C274.399 180.834 274.321 180.604 274.321 180.289ZM4.84863 189.006H7.67871C8.92741 189.006 9.86621 189.193 10.4951 189.566C11.124 189.94 11.4385 190.576 11.4385 191.474C11.4385 191.861 11.3633 192.21 11.2129 192.52C11.0671 192.825 10.8529 193.078 10.5703 193.278C10.2878 193.479 9.93913 193.618 9.52441 193.695V193.764C9.96191 193.832 10.3493 193.957 10.6865 194.14C11.0238 194.322 11.2881 194.577 11.4795 194.905C11.6709 195.233 11.7666 195.65 11.7666 196.156C11.7666 196.771 11.623 197.291 11.3359 197.715C11.0534 198.139 10.6523 198.46 10.1328 198.679C9.61328 198.893 8.99805 199 8.28711 199H4.84863V189.006ZM6.01074 193.292H7.9248C8.79525 193.292 9.39681 193.148 9.72949 192.861C10.0667 192.574 10.2354 192.155 10.2354 191.604C10.2354 191.034 10.0348 190.624 9.63379 190.373C9.2373 190.122 8.60384 189.997 7.7334 189.997H6.01074V193.292ZM6.01074 194.27V198.009H8.08887C8.97754 198.009 9.60645 197.836 9.97559 197.489C10.3447 197.138 10.5293 196.667 10.5293 196.074C10.5293 195.696 10.445 195.372 10.2764 195.104C10.1123 194.835 9.84342 194.63 9.46973 194.488C9.10059 194.342 8.60612 194.27 7.98633 194.27H6.01074ZM16.5312 191.385C17.4245 191.385 18.0876 191.585 18.5205 191.986C18.9535 192.387 19.1699 193.028 19.1699 193.907V199H18.3428L18.124 197.893H18.0693C17.8597 198.166 17.641 198.396 17.4131 198.583C17.1852 198.765 16.9209 198.904 16.6201 199C16.3239 199.091 15.9593 199.137 15.5264 199.137C15.0706 199.137 14.665 199.057 14.3096 198.897C13.9587 198.738 13.6807 198.496 13.4756 198.173C13.2751 197.849 13.1748 197.439 13.1748 196.942C13.1748 196.195 13.471 195.621 14.0635 195.22C14.6559 194.819 15.5583 194.6 16.7705 194.563L18.0625 194.509V194.051C18.0625 193.404 17.9235 192.95 17.6455 192.69C17.3675 192.431 16.9756 192.301 16.4697 192.301C16.0778 192.301 15.7041 192.358 15.3486 192.472C14.9932 192.586 14.6559 192.72 14.3369 192.875L13.9883 192.014C14.3255 191.84 14.7129 191.692 15.1504 191.569C15.5879 191.446 16.0482 191.385 16.5312 191.385ZM18.0488 195.309L16.9072 195.356C15.973 195.393 15.3145 195.546 14.9316 195.814C14.5488 196.083 14.3574 196.464 14.3574 196.956C14.3574 197.384 14.4873 197.701 14.7471 197.906C15.0068 198.111 15.3509 198.214 15.7793 198.214C16.4447 198.214 16.9893 198.029 17.4131 197.66C17.8369 197.291 18.0488 196.737 18.0488 195.999V195.309ZM31.5566 191.508V199H21.5078V191.508H22.6426V198.036H25.958V191.508H27.0996V198.036H30.4219V191.508H31.5566ZM37.7705 199V189.006H38.9326V199H37.7705ZM44.292 189.006C45.5817 189.006 46.5228 189.259 47.1152 189.765C47.7122 190.266 48.0107 190.986 48.0107 191.925C48.0107 192.349 47.9401 192.752 47.7988 193.135C47.6621 193.513 47.4388 193.848 47.1289 194.14C46.819 194.427 46.4111 194.655 45.9053 194.823C45.404 194.987 44.7887 195.069 44.0596 195.069H42.8428V199H41.6807V189.006H44.292ZM44.1826 189.997H42.8428V194.071H43.9297C44.5677 194.071 45.0986 194.003 45.5225 193.866C45.9508 193.729 46.2721 193.508 46.4863 193.203C46.7005 192.893 46.8076 192.483 46.8076 191.973C46.8076 191.307 46.5957 190.813 46.1719 190.489C45.748 190.161 45.085 189.997 44.1826 189.997ZM54.6484 191.508V196.218C54.6484 196.309 54.6462 196.427 54.6416 196.573C54.637 196.715 54.6302 196.867 54.6211 197.031C54.612 197.191 54.6029 197.346 54.5938 197.496C54.5892 197.642 54.5824 197.763 54.5732 197.858L58.6611 191.508H60.0557V199H58.9961V194.406C58.9961 194.26 58.9984 194.074 59.0029 193.846C59.0075 193.618 59.0143 193.395 59.0234 193.176C59.0326 192.952 59.0394 192.779 59.0439 192.656L54.9697 199H53.5684V191.508H54.6484ZM74.0146 191.508V199H72.9893V194.119C72.9893 193.919 72.9938 193.716 73.0029 193.511C73.0166 193.301 73.0326 193.091 73.0508 192.882H73.0098L70.5215 199H69.5576L67.1309 192.882H67.0898C67.1035 193.091 67.1126 193.301 67.1172 193.511C67.1263 193.716 67.1309 193.932 67.1309 194.16V199H66.0986V191.508H67.623L70.043 197.633L72.4971 191.508H74.0146ZM79.2578 191.371C79.8958 191.371 80.4427 191.512 80.8984 191.795C81.3542 192.077 81.7028 192.474 81.9443 192.984C82.1859 193.49 82.3066 194.083 82.3066 194.762V195.466H77.1318C77.1455 196.345 77.3643 197.015 77.7881 197.476C78.2119 197.936 78.8089 198.166 79.5791 198.166C80.0531 198.166 80.4723 198.123 80.8369 198.036C81.2015 197.95 81.5798 197.822 81.9717 197.653V198.651C81.5934 198.82 81.2174 198.943 80.8438 199.021C80.4746 199.098 80.0371 199.137 79.5312 199.137C78.8112 199.137 78.1823 198.991 77.6445 198.699C77.1113 198.403 76.6966 197.97 76.4004 197.4C76.1042 196.831 75.9561 196.133 75.9561 195.309C75.9561 194.502 76.0905 193.805 76.3594 193.217C76.6328 192.624 77.0156 192.169 77.5078 191.85C78.0046 191.531 78.5879 191.371 79.2578 191.371ZM79.2441 192.301C78.638 192.301 78.1549 192.499 77.7949 192.896C77.4349 193.292 77.2207 193.846 77.1523 194.557H81.1172C81.1126 194.11 81.042 193.718 80.9053 193.381C80.7731 193.039 80.5703 192.775 80.2969 192.588C80.0234 192.396 79.6725 192.301 79.2441 192.301ZM87.2354 199.137C86.5609 199.137 85.9661 198.998 85.4512 198.72C84.9362 198.442 84.5352 198.018 84.248 197.448C83.9609 196.879 83.8174 196.161 83.8174 195.295C83.8174 194.388 83.9678 193.647 84.2686 193.073C84.5739 192.494 84.9932 192.066 85.5264 191.788C86.0596 191.51 86.6657 191.371 87.3447 191.371C87.7184 191.371 88.0785 191.41 88.4248 191.487C88.7757 191.56 89.0628 191.654 89.2861 191.768L88.9443 192.718C88.7165 192.627 88.4521 192.545 88.1514 192.472C87.8551 192.399 87.5771 192.362 87.3174 192.362C86.7979 192.362 86.3649 192.474 86.0186 192.697C85.6768 192.921 85.4193 193.249 85.2461 193.682C85.0775 194.115 84.9932 194.648 84.9932 195.281C84.9932 195.887 85.0752 196.405 85.2393 196.833C85.4079 197.261 85.6562 197.59 85.9844 197.817C86.3171 198.041 86.7318 198.152 87.2285 198.152C87.625 198.152 87.9827 198.111 88.3018 198.029C88.6208 197.943 88.9102 197.842 89.1699 197.729V198.74C88.9193 198.868 88.639 198.966 88.3291 199.034C88.0238 199.103 87.6592 199.137 87.2354 199.137ZM96.0537 192.472H93.5859V199H92.4648V192.472H90.0312V191.508H96.0537V192.472ZM103.997 195.24C103.997 195.855 103.917 196.405 103.758 196.888C103.598 197.371 103.368 197.779 103.067 198.111C102.767 198.444 102.402 198.699 101.974 198.877C101.55 199.05 101.069 199.137 100.531 199.137C100.03 199.137 99.5697 199.05 99.1504 198.877C98.7357 198.699 98.3757 198.444 98.0703 198.111C97.7695 197.779 97.5348 197.371 97.3662 196.888C97.2021 196.405 97.1201 195.855 97.1201 195.24C97.1201 194.42 97.2591 193.723 97.5371 193.148C97.8151 192.57 98.2116 192.13 98.7266 191.829C99.2461 191.524 99.8636 191.371 100.579 191.371C101.263 191.371 101.86 191.524 102.37 191.829C102.885 192.134 103.284 192.576 103.566 193.155C103.854 193.729 103.997 194.424 103.997 195.24ZM98.2959 195.24C98.2959 195.842 98.3757 196.364 98.5352 196.806C98.6947 197.248 98.9408 197.59 99.2734 197.831C99.6061 198.073 100.035 198.193 100.559 198.193C101.078 198.193 101.504 198.073 101.837 197.831C102.174 197.59 102.423 197.248 102.582 196.806C102.742 196.364 102.821 195.842 102.821 195.24C102.821 194.643 102.742 194.128 102.582 193.695C102.423 193.258 102.176 192.921 101.844 192.684C101.511 192.447 101.08 192.328 100.552 192.328C99.7725 192.328 99.2005 192.586 98.8359 193.101C98.4759 193.616 98.2959 194.329 98.2959 195.24ZM112.234 191.508V199H111.093V192.485H107.101V199H105.959V191.508H112.234ZM121.101 195.24C121.101 195.855 121.021 196.405 120.861 196.888C120.702 197.371 120.472 197.779 120.171 198.111C119.87 198.444 119.506 198.699 119.077 198.877C118.653 199.05 118.173 199.137 117.635 199.137C117.133 199.137 116.673 199.05 116.254 198.877C115.839 198.699 115.479 198.444 115.174 198.111C114.873 197.779 114.638 197.371 114.47 196.888C114.306 196.405 114.224 195.855 114.224 195.24C114.224 194.42 114.363 193.723 114.641 193.148C114.919 192.57 115.315 192.13 115.83 191.829C116.35 191.524 116.967 191.371 117.683 191.371C118.366 191.371 118.963 191.524 119.474 191.829C119.989 192.134 120.387 192.576 120.67 193.155C120.957 193.729 121.101 194.424 121.101 195.24ZM115.399 195.24C115.399 195.842 115.479 196.364 115.639 196.806C115.798 197.248 116.044 197.59 116.377 197.831C116.71 198.073 117.138 198.193 117.662 198.193C118.182 198.193 118.608 198.073 118.94 197.831C119.278 197.59 119.526 197.248 119.686 196.806C119.845 196.364 119.925 195.842 119.925 195.24C119.925 194.643 119.845 194.128 119.686 193.695C119.526 193.258 119.28 192.921 118.947 192.684C118.615 192.447 118.184 192.328 117.655 192.328C116.876 192.328 116.304 192.586 115.939 193.101C115.579 193.616 115.399 194.329 115.399 195.24ZM128.682 199H127.526V192.458H125.25C125.159 193.638 125.043 194.65 124.901 195.493C124.765 196.332 124.591 197.018 124.382 197.551C124.177 198.079 123.926 198.469 123.63 198.72C123.338 198.966 122.99 199.089 122.584 199.089C122.461 199.089 122.345 199.082 122.235 199.068C122.126 199.055 122.033 199.032 121.955 199V198.139C122.014 198.157 122.076 198.171 122.14 198.18C122.208 198.189 122.279 198.193 122.352 198.193C122.557 198.193 122.743 198.109 122.912 197.94C123.085 197.767 123.24 197.507 123.377 197.161C123.518 196.815 123.644 196.377 123.753 195.849C123.862 195.315 123.958 194.689 124.04 193.969C124.127 193.244 124.202 192.424 124.266 191.508H128.682V199ZM137.534 195.24C137.534 195.855 137.454 196.405 137.295 196.888C137.135 197.371 136.905 197.779 136.604 198.111C136.304 198.444 135.939 198.699 135.511 198.877C135.087 199.05 134.606 199.137 134.068 199.137C133.567 199.137 133.107 199.05 132.688 198.877C132.273 198.699 131.913 198.444 131.607 198.111C131.307 197.779 131.072 197.371 130.903 196.888C130.739 196.405 130.657 195.855 130.657 195.24C130.657 194.42 130.796 193.723 131.074 193.148C131.352 192.57 131.749 192.13 132.264 191.829C132.783 191.524 133.401 191.371 134.116 191.371C134.8 191.371 135.397 191.524 135.907 191.829C136.422 192.134 136.821 192.576 137.104 193.155C137.391 193.729 137.534 194.424 137.534 195.24ZM131.833 195.24C131.833 195.842 131.913 196.364 132.072 196.806C132.232 197.248 132.478 197.59 132.811 197.831C133.143 198.073 133.572 198.193 134.096 198.193C134.615 198.193 135.041 198.073 135.374 197.831C135.711 197.59 135.96 197.248 136.119 196.806C136.279 196.364 136.358 195.842 136.358 195.24C136.358 194.643 136.279 194.128 136.119 193.695C135.96 193.258 135.714 192.921 135.381 192.684C135.048 192.447 134.618 192.328 134.089 192.328C133.31 192.328 132.738 192.586 132.373 193.101C132.013 193.616 131.833 194.329 131.833 195.24ZM148.273 191.508L145.156 195.151L148.54 199H147.241L143.96 195.199V199H142.9V195.199L139.626 199H138.327L141.711 195.151L138.587 191.508H139.838L142.9 195.145V191.508H143.96V195.145L147.036 191.508H148.273ZM152.676 191.371C153.314 191.371 153.861 191.512 154.316 191.795C154.772 192.077 155.121 192.474 155.362 192.984C155.604 193.49 155.725 194.083 155.725 194.762V195.466H150.55C150.563 196.345 150.782 197.015 151.206 197.476C151.63 197.936 152.227 198.166 152.997 198.166C153.471 198.166 153.89 198.123 154.255 198.036C154.619 197.95 154.998 197.822 155.39 197.653V198.651C155.011 198.82 154.635 198.943 154.262 199.021C153.893 199.098 153.455 199.137 152.949 199.137C152.229 199.137 151.6 198.991 151.062 198.699C150.529 198.403 150.115 197.97 149.818 197.4C149.522 196.831 149.374 196.133 149.374 195.309C149.374 194.502 149.508 193.805 149.777 193.217C150.051 192.624 150.434 192.169 150.926 191.85C151.423 191.531 152.006 191.371 152.676 191.371ZM152.662 192.301C152.056 192.301 151.573 192.499 151.213 192.896C150.853 193.292 150.639 193.846 150.57 194.557H154.535C154.531 194.11 154.46 193.718 154.323 193.381C154.191 193.039 153.988 192.775 153.715 192.588C153.441 192.396 153.09 192.301 152.662 192.301ZM158.794 191.508V194.652H162.971V191.508H164.105V199H162.971V195.616H158.794V199H157.652V191.508H158.794ZM167.592 191.508V196.218C167.592 196.309 167.59 196.427 167.585 196.573C167.58 196.715 167.574 196.867 167.564 197.031C167.555 197.191 167.546 197.346 167.537 197.496C167.533 197.642 167.526 197.763 167.517 197.858L171.604 191.508H172.999V199H171.939V194.406C171.939 194.26 171.942 194.074 171.946 193.846C171.951 193.618 171.958 193.395 171.967 193.176C171.976 192.952 171.983 192.779 171.987 192.656L167.913 199H166.512V191.508H167.592ZM178.297 191.371C178.935 191.371 179.482 191.512 179.938 191.795C180.393 192.077 180.742 192.474 180.983 192.984C181.225 193.49 181.346 194.083 181.346 194.762V195.466H176.171C176.185 196.345 176.403 197.015 176.827 197.476C177.251 197.936 177.848 198.166 178.618 198.166C179.092 198.166 179.511 198.123 179.876 198.036C180.241 197.95 180.619 197.822 181.011 197.653V198.651C180.632 198.82 180.257 198.943 179.883 199.021C179.514 199.098 179.076 199.137 178.57 199.137C177.85 199.137 177.221 198.991 176.684 198.699C176.15 198.403 175.736 197.97 175.439 197.4C175.143 196.831 174.995 196.133 174.995 195.309C174.995 194.502 175.13 193.805 175.398 193.217C175.672 192.624 176.055 192.169 176.547 191.85C177.044 191.531 177.627 191.371 178.297 191.371ZM178.283 192.301C177.677 192.301 177.194 192.499 176.834 192.896C176.474 193.292 176.26 193.846 176.191 194.557H180.156C180.152 194.11 180.081 193.718 179.944 193.381C179.812 193.039 179.609 192.775 179.336 192.588C179.062 192.396 178.712 192.301 178.283 192.301ZM192.399 191.508V198.036H193.473V201.591H192.372V199H187.067V201.591H185.98V198.036H186.568C186.997 197.444 187.352 196.794 187.635 196.088C187.917 195.382 188.132 194.641 188.277 193.866C188.423 193.087 188.501 192.301 188.51 191.508H192.399ZM191.299 192.41H189.521C189.48 193.076 189.382 193.752 189.228 194.44C189.077 195.129 188.877 195.785 188.626 196.409C188.375 197.029 188.084 197.571 187.751 198.036H191.299V192.41ZM201.423 195.24C201.423 195.855 201.343 196.405 201.184 196.888C201.024 197.371 200.794 197.779 200.493 198.111C200.192 198.444 199.828 198.699 199.399 198.877C198.976 199.05 198.495 199.137 197.957 199.137C197.456 199.137 196.995 199.05 196.576 198.877C196.161 198.699 195.801 198.444 195.496 198.111C195.195 197.779 194.961 197.371 194.792 196.888C194.628 196.405 194.546 195.855 194.546 195.24C194.546 194.42 194.685 193.723 194.963 193.148C195.241 192.57 195.637 192.13 196.152 191.829C196.672 191.524 197.289 191.371 198.005 191.371C198.688 191.371 199.285 191.524 199.796 191.829C200.311 192.134 200.71 192.576 200.992 193.155C201.279 193.729 201.423 194.424 201.423 195.24ZM195.722 195.24C195.722 195.842 195.801 196.364 195.961 196.806C196.12 197.248 196.367 197.59 196.699 197.831C197.032 198.073 197.46 198.193 197.984 198.193C198.504 198.193 198.93 198.073 199.263 197.831C199.6 197.59 199.848 197.248 200.008 196.806C200.167 196.364 200.247 195.842 200.247 195.24C200.247 194.643 200.167 194.128 200.008 193.695C199.848 193.258 199.602 192.921 199.27 192.684C198.937 192.447 198.506 192.328 197.978 192.328C197.198 192.328 196.626 192.586 196.262 193.101C195.902 193.616 195.722 194.329 195.722 195.24ZM206.386 199.137C205.711 199.137 205.117 198.998 204.602 198.72C204.087 198.442 203.686 198.018 203.398 197.448C203.111 196.879 202.968 196.161 202.968 195.295C202.968 194.388 203.118 193.647 203.419 193.073C203.724 192.494 204.144 192.066 204.677 191.788C205.21 191.51 205.816 191.371 206.495 191.371C206.869 191.371 207.229 191.41 207.575 191.487C207.926 191.56 208.213 191.654 208.437 191.768L208.095 192.718C207.867 192.627 207.603 192.545 207.302 192.472C207.006 192.399 206.728 192.362 206.468 192.362C205.948 192.362 205.515 192.474 205.169 192.697C204.827 192.921 204.57 193.249 204.396 193.682C204.228 194.115 204.144 194.648 204.144 195.281C204.144 195.887 204.226 196.405 204.39 196.833C204.558 197.261 204.807 197.59 205.135 197.817C205.467 198.041 205.882 198.152 206.379 198.152C206.775 198.152 207.133 198.111 207.452 198.029C207.771 197.943 208.061 197.842 208.32 197.729V198.74C208.07 198.868 207.789 198.966 207.479 199.034C207.174 199.103 206.81 199.137 206.386 199.137ZM215.204 192.472H212.736V199H211.615V192.472H209.182V191.508H215.204V192.472ZM215.505 191.508H216.722L218.376 195.855C218.472 196.111 218.561 196.357 218.643 196.594C218.725 196.826 218.798 197.049 218.861 197.264C218.925 197.478 218.975 197.685 219.012 197.886H219.06C219.123 197.658 219.215 197.359 219.333 196.99C219.451 196.617 219.579 196.236 219.716 195.849L221.281 191.508H222.505L219.244 200.101C219.071 200.561 218.868 200.962 218.636 201.304C218.408 201.646 218.13 201.908 217.802 202.09C217.474 202.277 217.077 202.37 216.612 202.37C216.398 202.37 216.209 202.356 216.045 202.329C215.881 202.306 215.74 202.279 215.621 202.247V201.338C215.721 201.361 215.842 201.381 215.983 201.399C216.129 201.418 216.28 201.427 216.435 201.427C216.717 201.427 216.961 201.372 217.166 201.263C217.376 201.158 217.556 201.003 217.706 200.798C217.856 200.593 217.986 200.349 218.096 200.066L218.506 199.014L215.505 191.508ZM229.977 191.508V199H228.835V192.485H224.843V199H223.701V191.508H229.977ZM233.524 191.508V194.652H237.701V191.508H238.836V199H237.701V195.616H233.524V199H232.383V191.508H233.524ZM241.242 199V191.508H242.384V194.598H244.435C245.073 194.598 245.597 194.677 246.007 194.837C246.422 194.996 246.729 195.233 246.93 195.548C247.13 195.862 247.23 196.252 247.23 196.717C247.23 197.182 247.13 197.585 246.93 197.927C246.734 198.269 246.424 198.533 246 198.72C245.581 198.907 245.034 199 244.359 199H241.242ZM242.384 198.077H244.25C244.815 198.077 245.266 197.977 245.604 197.776C245.941 197.576 246.109 197.241 246.109 196.771C246.109 196.311 245.952 195.992 245.638 195.814C245.323 195.632 244.872 195.541 244.284 195.541H242.384V198.077ZM248.468 199V191.508H249.603V199H248.468ZM260.745 192.472H258.277V199H257.156V192.472H254.723V191.508H260.745V192.472ZM265.749 191.371C266.683 191.371 267.428 191.692 267.984 192.335C268.54 192.978 268.818 193.944 268.818 195.233C268.818 196.086 268.691 196.801 268.436 197.38C268.18 197.959 267.82 198.396 267.355 198.692C266.895 198.989 266.351 199.137 265.722 199.137C265.325 199.137 264.977 199.084 264.676 198.979C264.375 198.875 264.118 198.733 263.903 198.556C263.689 198.378 263.511 198.184 263.37 197.975H263.288C263.302 198.152 263.318 198.367 263.336 198.617C263.359 198.868 263.37 199.087 263.37 199.273V202.35H262.229V191.508H263.165L263.315 192.615H263.37C263.516 192.387 263.694 192.18 263.903 191.993C264.113 191.802 264.368 191.651 264.669 191.542C264.974 191.428 265.334 191.371 265.749 191.371ZM265.551 192.328C265.031 192.328 264.612 192.428 264.293 192.629C263.979 192.829 263.748 193.13 263.603 193.531C263.457 193.928 263.379 194.427 263.37 195.028V195.247C263.37 195.881 263.438 196.416 263.575 196.854C263.716 197.291 263.947 197.624 264.266 197.852C264.589 198.079 265.022 198.193 265.564 198.193C266.029 198.193 266.417 198.068 266.727 197.817C267.036 197.567 267.267 197.218 267.417 196.771C267.572 196.32 267.649 195.803 267.649 195.22C267.649 194.336 267.476 193.634 267.13 193.114C266.788 192.59 266.262 192.328 265.551 192.328ZM273.686 191.371C274.324 191.371 274.87 191.512 275.326 191.795C275.782 192.077 276.131 192.474 276.372 192.984C276.614 193.49 276.734 194.083 276.734 194.762V195.466H271.56C271.573 196.345 271.792 197.015 272.216 197.476C272.64 197.936 273.237 198.166 274.007 198.166C274.481 198.166 274.9 198.123 275.265 198.036C275.629 197.95 276.007 197.822 276.399 197.653V198.651C276.021 198.82 275.645 198.943 275.271 199.021C274.902 199.098 274.465 199.137 273.959 199.137C273.239 199.137 272.61 198.991 272.072 198.699C271.539 198.403 271.124 197.97 270.828 197.4C270.532 196.831 270.384 196.133 270.384 195.309C270.384 194.502 270.518 193.805 270.787 193.217C271.061 192.624 271.443 192.169 271.936 191.85C272.432 191.531 273.016 191.371 273.686 191.371ZM273.672 192.301C273.066 192.301 272.583 192.499 272.223 192.896C271.863 193.292 271.648 193.846 271.58 194.557H275.545C275.54 194.11 275.47 193.718 275.333 193.381C275.201 193.039 274.998 192.775 274.725 192.588C274.451 192.396 274.1 192.301 273.672 192.301ZM283.769 192.472H281.301V199H280.18V192.472H277.746V191.508H283.769V192.472ZM286.394 194.598H288.69C289.328 194.598 289.859 194.677 290.283 194.837C290.707 194.996 291.024 195.233 291.233 195.548C291.448 195.862 291.555 196.252 291.555 196.717C291.555 197.182 291.45 197.585 291.24 197.927C291.035 198.269 290.716 198.533 290.283 198.72C289.855 198.907 289.301 199 288.622 199H285.252V191.508H286.394V194.598ZM290.413 196.771C290.413 196.311 290.249 195.992 289.921 195.814C289.597 195.632 289.144 195.541 288.561 195.541H286.394V198.077H288.567C289.114 198.077 289.559 197.977 289.9 197.776C290.242 197.571 290.413 197.236 290.413 196.771ZM294.59 191.508V196.218C294.59 196.309 294.588 196.427 294.583 196.573C294.578 196.715 294.572 196.867 294.562 197.031C294.553 197.191 294.544 197.346 294.535 197.496C294.531 197.642 294.524 197.763 294.515 197.858L298.603 191.508H299.997V199H298.938V194.406C298.938 194.26 298.94 194.074 298.944 193.846C298.949 193.618 298.956 193.395 298.965 193.176C298.974 192.952 298.981 192.779 298.985 192.656L294.911 199H293.51V191.508H294.59ZM310.319 191.508V199H309.294V194.119C309.294 193.919 309.299 193.716 309.308 193.511C309.321 193.301 309.337 193.091 309.355 192.882H309.314L306.826 199H305.862L303.436 192.882H303.395C303.408 193.091 303.417 193.301 303.422 193.511C303.431 193.716 303.436 193.932 303.436 194.16V199H302.403V191.508H303.928L306.348 197.633L308.802 191.508H310.319ZM321.934 199H320.778V192.458H318.502C318.411 193.638 318.295 194.65 318.153 195.493C318.017 196.332 317.843 197.018 317.634 197.551C317.429 198.079 317.178 198.469 316.882 198.72C316.59 198.966 316.242 199.089 315.836 199.089C315.713 199.089 315.597 199.082 315.487 199.068C315.378 199.055 315.285 199.032 315.207 199V198.139C315.266 198.157 315.328 198.171 315.392 198.18C315.46 198.189 315.531 198.193 315.604 198.193C315.809 198.193 315.995 198.109 316.164 197.94C316.337 197.767 316.492 197.507 316.629 197.161C316.77 196.815 316.896 196.377 317.005 195.849C317.114 195.315 317.21 194.689 317.292 193.969C317.379 193.244 317.454 192.424 317.518 191.508H321.934V199ZM325.406 191.508V196.218C325.406 196.309 325.404 196.427 325.399 196.573C325.395 196.715 325.388 196.867 325.379 197.031C325.37 197.191 325.361 197.346 325.352 197.496C325.347 197.642 325.34 197.763 325.331 197.858L329.419 191.508H330.813V199H329.754V194.406C329.754 194.26 329.756 194.074 329.761 193.846C329.765 193.618 329.772 193.395 329.781 193.176C329.79 192.952 329.797 192.779 329.802 192.656L325.728 199H324.326V191.508H325.406ZM340.521 201.591H339.413V199H333.227V191.508H334.368V198.036H338.34V191.508H339.475V198.05H340.521V201.591ZM344.793 191.385C345.686 191.385 346.349 191.585 346.782 191.986C347.215 192.387 347.432 193.028 347.432 193.907V199H346.604L346.386 197.893H346.331C346.121 198.166 345.903 198.396 345.675 198.583C345.447 198.765 345.183 198.904 344.882 199C344.586 199.091 344.221 199.137 343.788 199.137C343.332 199.137 342.927 199.057 342.571 198.897C342.22 198.738 341.942 198.496 341.737 198.173C341.537 197.849 341.437 197.439 341.437 196.942C341.437 196.195 341.733 195.621 342.325 195.22C342.918 194.819 343.82 194.6 345.032 194.563L346.324 194.509V194.051C346.324 193.404 346.185 192.95 345.907 192.69C345.629 192.431 345.237 192.301 344.731 192.301C344.34 192.301 343.966 192.358 343.61 192.472C343.255 192.586 342.918 192.72 342.599 192.875L342.25 192.014C342.587 191.84 342.975 191.692 343.412 191.569C343.85 191.446 344.31 191.385 344.793 191.385ZM346.311 195.309L345.169 195.356C344.235 195.393 343.576 195.546 343.193 195.814C342.811 196.083 342.619 196.464 342.619 196.956C342.619 197.384 342.749 197.701 343.009 197.906C343.269 198.111 343.613 198.214 344.041 198.214C344.706 198.214 345.251 198.029 345.675 197.66C346.099 197.291 346.311 196.737 346.311 195.999V195.309ZM357.679 191.508V199H356.653V194.119C356.653 193.919 356.658 193.716 356.667 193.511C356.681 193.301 356.697 193.091 356.715 192.882H356.674L354.186 199H353.222L350.795 192.882H350.754C350.768 193.091 350.777 193.301 350.781 193.511C350.79 193.716 350.795 193.932 350.795 194.16V199H349.763V191.508H351.287L353.707 197.633L356.161 191.508H357.679ZM359.866 198.289C359.866 197.97 359.944 197.744 360.099 197.612C360.254 197.476 360.443 197.407 360.666 197.407C360.898 197.407 361.094 197.476 361.254 197.612C361.413 197.744 361.493 197.97 361.493 198.289C361.493 198.604 361.413 198.834 361.254 198.979C361.094 199.121 360.898 199.191 360.666 199.191C360.443 199.191 360.254 199.121 360.099 198.979C359.944 198.834 359.866 198.604 359.866 198.289Z" fill="#13233C"/>
<rect x="65" y="225" width="228" height="44" rx="3" fill="#3B9946"/>
<path d="M117.715 241.864H121.326C122.892 241.864 124.074 242.091 124.871 242.545C125.667 242.999 126.066 243.782 126.066 244.894C126.066 245.359 125.983 245.779 125.817 246.156C125.656 246.527 125.421 246.834 125.111 247.077C124.801 247.315 124.42 247.476 123.966 247.559V247.642C124.436 247.725 124.854 247.871 125.219 248.082C125.59 248.292 125.881 248.593 126.091 248.986C126.307 249.379 126.415 249.888 126.415 250.514C126.415 251.255 126.237 251.886 125.883 252.406C125.535 252.926 125.034 253.322 124.381 253.593C123.733 253.864 122.964 254 122.073 254H117.715V241.864ZM119.708 246.87H121.617C122.519 246.87 123.144 246.723 123.493 246.43C123.841 246.136 124.016 245.708 124.016 245.143C124.016 244.568 123.808 244.153 123.393 243.898C122.984 243.643 122.331 243.516 121.434 243.516H119.708V246.87ZM119.708 248.48V252.332H121.808C122.737 252.332 123.39 252.152 123.767 251.792C124.143 251.432 124.331 250.945 124.331 250.331C124.331 249.955 124.245 249.628 124.074 249.352C123.908 249.075 123.634 248.862 123.252 248.712C122.87 248.557 122.355 248.48 121.708 248.48H119.708ZM134.417 244.811H136.566L132.765 249.227L136.89 254H134.641L130.681 249.335V254H128.722V244.811H130.681V249.269L134.417 244.811ZM145.946 254H143.979V246.338H141.431C141.32 247.733 141.182 248.925 141.016 249.916C140.85 250.907 140.642 251.715 140.393 252.34C140.144 252.96 139.837 253.413 139.472 253.701C139.106 253.989 138.667 254.133 138.152 254.133C137.925 254.133 137.72 254.116 137.538 254.083C137.355 254.055 137.192 254.011 137.048 253.95V252.415C137.142 252.448 137.244 252.475 137.355 252.498C137.466 252.52 137.579 252.531 137.695 252.531C137.9 252.531 138.088 252.448 138.26 252.282C138.437 252.11 138.6 251.842 138.75 251.477C138.899 251.111 139.035 250.63 139.156 250.032C139.278 249.429 139.389 248.699 139.488 247.841C139.588 246.978 139.676 245.968 139.754 244.811H145.946V254ZM160.996 249.385C160.996 250.397 160.827 251.261 160.489 251.975C160.157 252.688 159.681 253.234 159.062 253.61C158.442 253.981 157.7 254.166 156.837 254.166C156.073 254.166 155.395 254.011 154.803 253.701C154.217 253.391 153.746 252.929 153.392 252.315C153.038 251.701 152.819 250.94 152.736 250.032H150.694V254H148.744V244.811H150.694V248.505H152.761C152.861 247.68 153.088 246.98 153.442 246.405C153.796 245.829 154.264 245.392 154.845 245.093C155.431 244.789 156.109 244.637 156.878 244.637C157.697 244.637 158.414 244.825 159.028 245.201C159.648 245.572 160.13 246.111 160.473 246.82C160.821 247.523 160.996 248.378 160.996 249.385ZM154.72 249.385C154.72 250.071 154.792 250.652 154.936 251.128C155.085 251.604 155.318 251.964 155.633 252.207C155.949 252.451 156.358 252.572 156.862 252.572C157.365 252.572 157.772 252.451 158.082 252.207C158.397 251.964 158.627 251.607 158.771 251.136C158.92 250.66 158.995 250.076 158.995 249.385C158.995 248.699 158.92 248.123 158.771 247.658C158.627 247.193 158.397 246.842 158.082 246.604C157.767 246.361 157.357 246.239 156.854 246.239C156.355 246.239 155.949 246.361 155.633 246.604C155.318 246.842 155.085 247.193 154.936 247.658C154.792 248.123 154.72 248.699 154.72 249.385ZM164.963 244.811V248.14C164.963 248.627 165.091 248.989 165.345 249.227C165.6 249.465 165.965 249.584 166.441 249.584C166.972 249.584 167.459 249.512 167.902 249.368C168.35 249.224 168.801 249.031 169.255 248.787V244.811H171.206V254H169.255V250.115C168.796 250.386 168.317 250.613 167.819 250.796C167.321 250.979 166.737 251.07 166.067 251.07C165.116 251.07 164.368 250.824 163.826 250.331C163.284 249.839 163.013 249.136 163.013 248.223V244.811H164.963ZM175.871 244.811V249.501C175.871 249.65 175.865 249.841 175.854 250.074C175.848 250.301 175.837 250.539 175.821 250.788C175.804 251.031 175.788 251.255 175.771 251.46C175.754 251.665 175.741 251.817 175.729 251.917L180.353 244.811H182.727V254H180.859V249.36C180.859 249.116 180.865 248.834 180.876 248.513C180.893 248.192 180.909 247.882 180.926 247.583C180.948 247.285 180.962 247.058 180.967 246.903L176.36 254H173.995V244.811H175.871ZM192.472 246.347H189.451V254H187.508V246.347H184.503V244.811H192.472V246.347ZM196.208 248.48H198.49C199.354 248.48 200.067 248.58 200.632 248.779C201.202 248.972 201.628 249.266 201.91 249.659C202.192 250.052 202.333 250.544 202.333 251.136C202.333 251.717 202.201 252.224 201.935 252.655C201.669 253.081 201.254 253.413 200.69 253.651C200.131 253.884 199.401 254 198.499 254H194.249V244.811H196.208V248.48ZM200.375 251.186C200.375 250.727 200.203 250.403 199.86 250.215C199.517 250.021 199.027 249.924 198.391 249.924H196.208V252.564H198.407C198.988 252.564 199.461 252.459 199.827 252.249C200.192 252.033 200.375 251.679 200.375 251.186ZM218.105 241.864L213.863 254H211.755L207.513 241.864H209.555L212.112 249.468C212.189 249.689 212.272 249.958 212.361 250.273C212.455 250.588 212.541 250.907 212.618 251.228C212.701 251.549 212.765 251.833 212.809 252.083C212.853 251.833 212.914 251.549 212.992 251.228C213.075 250.907 213.16 250.588 213.249 250.273C213.338 249.958 213.421 249.686 213.498 249.459L216.063 241.864H218.105ZM223.227 241.864C224.793 241.864 225.935 242.185 226.655 242.827C227.374 243.469 227.734 244.368 227.734 245.525C227.734 246.051 227.651 246.551 227.485 247.027C227.324 247.498 227.059 247.916 226.688 248.281C226.317 248.64 225.827 248.925 225.219 249.136C224.616 249.346 223.871 249.451 222.986 249.451H221.691V254H219.699V241.864H223.227ZM223.094 243.516H221.691V247.791H222.778C223.404 247.791 223.935 247.719 224.372 247.575C224.809 247.426 225.141 247.191 225.368 246.87C225.595 246.549 225.708 246.125 225.708 245.6C225.708 244.897 225.495 244.374 225.069 244.031C224.649 243.688 223.99 243.516 223.094 243.516ZM240.285 254H237.836L231.893 244.313H231.818C231.84 244.639 231.859 244.985 231.876 245.351C231.898 245.716 231.915 246.092 231.926 246.479C231.942 246.867 231.956 247.26 231.967 247.658V254H230.158V241.864H232.59L238.525 251.485H238.583C238.572 251.203 238.558 250.879 238.542 250.514C238.525 250.148 238.508 249.772 238.492 249.385C238.481 248.992 238.472 248.613 238.467 248.248V241.864H240.285V254Z" fill="white"/>
<path d="M96.7192 145.609C96.7192 146.525 96.4131 147.258 95.8008 147.808C95.1947 148.352 94.403 148.699 93.4258 148.847V148.912C94.6009 149.054 95.5008 149.407 96.1255 149.97C96.7502 150.526 97.0625 151.256 97.0625 152.159C97.0625 152.951 96.8553 153.65 96.4409 154.256C96.0265 154.862 95.408 155.335 94.5854 155.675C93.7629 156.015 92.7424 156.186 91.5239 156.186C90.6395 156.186 89.8324 156.124 89.1025 156C88.3727 155.882 87.7233 155.697 87.1543 155.443V153.514C87.5439 153.699 87.9707 153.86 88.4346 153.996C88.9046 154.126 89.3809 154.228 89.8633 154.302C90.3519 154.37 90.8096 154.404 91.2363 154.404C92.4486 154.404 93.3485 154.2 93.936 153.792C94.5236 153.384 94.8174 152.806 94.8174 152.057C94.8174 151.29 94.437 150.73 93.6763 150.378C92.9155 150.025 91.8734 149.849 90.5498 149.849H88.9355V148.068H90.4478C91.4312 148.068 92.2197 147.981 92.8135 147.808C93.4072 147.635 93.8371 147.388 94.103 147.066C94.369 146.744 94.502 146.361 94.502 145.916C94.502 145.328 94.2669 144.87 93.7969 144.542C93.333 144.208 92.6898 144.042 91.8672 144.042C91.0879 144.042 90.4045 144.147 89.8169 144.357C89.2293 144.567 88.6696 144.842 88.1377 145.183L87.1265 143.689C87.5409 143.404 87.9924 143.154 88.481 142.938C88.9757 142.721 89.52 142.551 90.1138 142.427C90.7075 142.304 91.36 142.242 92.0713 142.242C93.0609 142.242 93.8989 142.387 94.5854 142.678C95.2782 142.962 95.807 143.358 96.1719 143.865C96.5368 144.372 96.7192 144.954 96.7192 145.609ZM103.584 145.535C104.883 145.535 105.864 145.823 106.525 146.398C107.193 146.973 107.527 147.87 107.527 149.088V156H105.978L105.561 154.543H105.486C105.196 154.915 104.896 155.221 104.586 155.462C104.277 155.703 103.918 155.882 103.51 156C103.108 156.124 102.617 156.186 102.035 156.186C101.423 156.186 100.875 156.074 100.393 155.852C99.9106 155.623 99.5303 155.276 99.252 154.812C98.9736 154.349 98.8345 153.761 98.8345 153.05C98.8345 151.992 99.2272 151.197 100.013 150.666C100.804 150.134 101.998 149.84 103.594 149.784L105.375 149.719V149.181C105.375 148.47 105.208 147.963 104.874 147.66C104.546 147.357 104.082 147.205 103.482 147.205C102.969 147.205 102.471 147.279 101.989 147.428C101.506 147.576 101.036 147.759 100.579 147.975L99.8735 146.435C100.375 146.169 100.944 145.953 101.581 145.786C102.224 145.619 102.892 145.535 103.584 145.535ZM105.366 151.092L104.039 151.139C102.951 151.176 102.187 151.361 101.748 151.695C101.308 152.029 101.089 152.487 101.089 153.068C101.089 153.576 101.24 153.947 101.543 154.182C101.847 154.41 102.245 154.525 102.74 154.525C103.495 154.525 104.119 154.312 104.614 153.885C105.115 153.452 105.366 152.818 105.366 151.983V151.092ZM125.117 145.73V154.321H126.602V159.609H124.551V156H110.58V145.73H112.76V154.284H116.749V145.73H118.938V154.284H122.937V145.73H125.117ZM130.563 145.73V150.972C130.563 151.139 130.557 151.352 130.544 151.612C130.538 151.865 130.526 152.131 130.507 152.41C130.489 152.682 130.47 152.932 130.452 153.161C130.433 153.39 130.418 153.56 130.405 153.671L135.573 145.73H138.226V156H136.139V150.814C136.139 150.542 136.145 150.226 136.157 149.868C136.176 149.509 136.194 149.163 136.213 148.829C136.238 148.495 136.253 148.241 136.259 148.068L131.11 156H128.466V145.73H130.563ZM149.118 147.446H145.741V156H143.57V147.446H140.211V145.73H149.118V147.446ZM155.129 145.535C156.428 145.535 157.409 145.823 158.07 146.398C158.738 146.973 159.072 147.87 159.072 149.088V156H157.523L157.105 154.543H157.031C156.741 154.915 156.441 155.221 156.131 155.462C155.822 155.703 155.463 155.882 155.055 156C154.653 156.124 154.161 156.186 153.58 156.186C152.968 156.186 152.42 156.074 151.938 155.852C151.456 155.623 151.075 155.276 150.797 154.812C150.519 154.349 150.379 153.761 150.379 153.05C150.379 151.992 150.772 151.197 151.558 150.666C152.349 150.134 153.543 149.84 155.139 149.784L156.92 149.719V149.181C156.92 148.47 156.753 147.963 156.419 147.66C156.091 147.357 155.627 147.205 155.027 147.205C154.514 147.205 154.016 147.279 153.534 147.428C153.051 147.576 152.581 147.759 152.124 147.975L151.418 146.435C151.919 146.169 152.488 145.953 153.125 145.786C153.769 145.619 154.437 145.535 155.129 145.535ZM156.911 151.092L155.584 151.139C154.495 151.176 153.732 151.361 153.292 151.695C152.853 152.029 152.634 152.487 152.634 153.068C152.634 153.576 152.785 153.947 153.088 154.182C153.391 154.41 153.79 154.525 154.285 154.525C155.04 154.525 155.664 154.312 156.159 153.885C156.66 153.452 156.911 152.818 156.911 151.983V151.092ZM176.152 150.842C176.152 151.695 176.041 152.453 175.818 153.115C175.595 153.777 175.271 154.336 174.844 154.794C174.417 155.245 173.904 155.592 173.304 155.833C172.704 156.068 172.027 156.186 171.272 156.186C170.567 156.186 169.921 156.068 169.333 155.833C168.745 155.592 168.235 155.245 167.802 154.794C167.375 154.336 167.045 153.777 166.81 153.115C166.575 152.453 166.457 151.695 166.457 150.842C166.457 149.71 166.652 148.751 167.042 147.966C167.437 147.174 168 146.571 168.73 146.157C169.46 145.742 170.329 145.535 171.337 145.535C172.283 145.535 173.118 145.742 173.842 146.157C174.565 146.571 175.131 147.174 175.54 147.966C175.948 148.757 176.152 149.716 176.152 150.842ZM168.702 150.842C168.702 151.59 168.792 152.23 168.971 152.762C169.157 153.294 169.441 153.702 169.825 153.987C170.208 154.265 170.703 154.404 171.309 154.404C171.915 154.404 172.41 154.265 172.793 153.987C173.177 153.702 173.458 153.294 173.638 152.762C173.817 152.23 173.907 151.59 173.907 150.842C173.907 150.093 173.817 149.459 173.638 148.94C173.458 148.414 173.177 148.015 172.793 147.743C172.41 147.465 171.912 147.326 171.3 147.326C170.397 147.326 169.738 147.629 169.324 148.235C168.909 148.841 168.702 149.71 168.702 150.842ZM186.413 147.446H183.036V156H180.865V147.446H177.506V145.73H186.413V147.446ZM194.762 145.73H197.165L192.916 150.666L197.527 156H195.013L190.587 150.786V156H188.398V145.73H190.587V150.712L194.762 145.73ZM207.648 156H205.45V147.437H202.602C202.478 148.996 202.323 150.328 202.138 151.436C201.952 152.543 201.72 153.446 201.442 154.145C201.164 154.837 200.82 155.344 200.412 155.666C200.004 155.988 199.512 156.148 198.937 156.148C198.683 156.148 198.455 156.13 198.25 156.093C198.046 156.062 197.864 156.012 197.703 155.944V154.228C197.808 154.265 197.923 154.296 198.046 154.321C198.17 154.346 198.297 154.358 198.427 154.358C198.656 154.358 198.866 154.265 199.058 154.08C199.256 153.888 199.438 153.588 199.605 153.18C199.772 152.771 199.924 152.233 200.06 151.565C200.196 150.891 200.319 150.075 200.431 149.116C200.542 148.151 200.641 147.023 200.728 145.73H207.648V156ZM224.468 150.842C224.468 151.974 224.28 152.938 223.902 153.736C223.531 154.534 222.999 155.143 222.307 155.564C221.614 155.978 220.785 156.186 219.82 156.186C218.967 156.186 218.209 156.012 217.547 155.666C216.892 155.32 216.366 154.803 215.97 154.117C215.574 153.43 215.33 152.58 215.237 151.565H212.955V156H210.775V145.73H212.955V149.858H215.265C215.376 148.937 215.63 148.154 216.026 147.511C216.422 146.868 216.944 146.379 217.594 146.045C218.249 145.705 219.007 145.535 219.867 145.535C220.782 145.535 221.583 145.745 222.27 146.166C222.962 146.58 223.5 147.183 223.884 147.975C224.273 148.761 224.468 149.716 224.468 150.842ZM217.455 150.842C217.455 151.609 217.535 152.258 217.696 152.79C217.863 153.322 218.123 153.724 218.475 153.996C218.828 154.268 219.285 154.404 219.848 154.404C220.411 154.404 220.866 154.268 221.212 153.996C221.564 153.724 221.821 153.325 221.982 152.799C222.149 152.267 222.232 151.615 222.232 150.842C222.232 150.075 222.149 149.432 221.982 148.912C221.821 148.393 221.564 148 221.212 147.734C220.859 147.462 220.402 147.326 219.839 147.326C219.282 147.326 218.828 147.462 218.475 147.734C218.123 148 217.863 148.393 217.696 148.912C217.535 149.432 217.455 150.075 217.455 150.842ZM228.903 145.73V149.45C228.903 149.994 229.045 150.4 229.33 150.666C229.614 150.931 230.022 151.064 230.554 151.064C231.148 151.064 231.692 150.984 232.187 150.823C232.688 150.662 233.192 150.446 233.699 150.174V145.73H235.879V156H233.699V151.658C233.186 151.961 232.651 152.215 232.094 152.419C231.538 152.623 230.885 152.725 230.137 152.725C229.073 152.725 228.238 152.45 227.632 151.899C227.026 151.349 226.723 150.563 226.723 149.543V145.73H228.903ZM243.088 145.535C244.003 145.535 244.789 145.724 245.444 146.101C246.1 146.478 246.604 147.013 246.957 147.706C247.309 148.399 247.485 149.228 247.485 150.192V151.361H240.629C240.654 152.357 240.92 153.124 241.427 153.662C241.941 154.2 242.658 154.469 243.58 154.469C244.235 154.469 244.823 154.407 245.342 154.284C245.868 154.154 246.409 153.965 246.966 153.718V155.49C246.452 155.731 245.93 155.907 245.398 156.019C244.866 156.13 244.229 156.186 243.487 156.186C242.479 156.186 241.591 155.991 240.824 155.601C240.063 155.205 239.467 154.618 239.034 153.838C238.607 153.059 238.394 152.091 238.394 150.935C238.394 149.784 238.588 148.807 238.978 148.003C239.368 147.199 239.915 146.587 240.62 146.166C241.325 145.745 242.148 145.535 243.088 145.535ZM243.088 147.177C242.401 147.177 241.845 147.4 241.418 147.845C240.997 148.291 240.75 148.943 240.676 149.803H245.352C245.345 149.289 245.259 148.835 245.092 148.439C244.931 148.043 244.684 147.734 244.35 147.511C244.022 147.289 243.601 147.177 243.088 147.177ZM252.133 145.73V149.858H256.939V145.73H259.128V156H256.939V151.565H252.133V156H249.944V145.73H252.133ZM266.272 145.535C267.571 145.535 268.551 145.823 269.213 146.398C269.881 146.973 270.215 147.87 270.215 149.088V156H268.666L268.248 154.543H268.174C267.883 154.915 267.583 155.221 267.274 155.462C266.965 155.703 266.606 155.882 266.198 156C265.796 156.124 265.304 156.186 264.723 156.186C264.11 156.186 263.563 156.074 263.081 155.852C262.598 155.623 262.218 155.276 261.939 154.812C261.661 154.349 261.522 153.761 261.522 153.05C261.522 151.992 261.915 151.197 262.7 150.666C263.492 150.134 264.686 149.84 266.281 149.784L268.062 149.719V149.181C268.062 148.47 267.896 147.963 267.562 147.66C267.234 147.357 266.77 147.205 266.17 147.205C265.657 147.205 265.159 147.279 264.676 147.428C264.194 147.576 263.724 147.759 263.266 147.975L262.561 146.435C263.062 146.169 263.631 145.953 264.268 145.786C264.911 145.619 265.579 145.535 266.272 145.535ZM268.053 151.092L266.727 151.139C265.638 151.176 264.874 151.361 264.435 151.695C263.996 152.029 263.776 152.487 263.776 153.068C263.776 153.576 263.928 153.947 264.231 154.182C264.534 154.41 264.933 154.525 265.428 154.525C266.182 154.525 266.807 154.312 267.302 153.885C267.803 153.452 268.053 152.818 268.053 151.983V151.092Z" fill="#994137"/>
<defs>
<filter id="filter0_d_1941_6337" x="117" y="12" width="130" height="118.154" filterUnits="userSpaceOnUse" color-interpolation-filters="sRGB">
<feFlood flood-opacity="0" result="BackgroundImageFix"/>
<feColorMatrix in="SourceAlpha" type="matrix" values="0 0 0 0 0 0 0 0 0 0 0 0 0 0 0 0 0 0 127 0" result="hardAlpha"/>
<feOffset dy="2"/>
<feGaussianBlur stdDeviation="6"/>
<feColorMatrix type="matrix" values="0 0 0 0 0 0 0 0 0 0 0 0 0 0 0 0 0 0 0.4 0"/>
<feBlend mode="normal" in2="BackgroundImageFix" result="effect1_dropShadow_1941_6337"/>
<feBlend mode="normal" in="SourceGraphic" in2="effect1_dropShadow_1941_6337" result="shape"/>
</filter>
<clipPath id="clip0_1941_6337">
<rect width="18" height="18" fill="white" transform="translate(332 10)"/>
</clipPath>
</defs>
</svg>
