<svg xmlns="http://www.w3.org/2000/svg" xmlns:xlink="http://www.w3.org/1999/xlink">
<defs>
	<linearGradient x1="64.6541667%" y1="15.8041667%" x2="39.6541667%" y2="74.1366667%" id="linearGradient-1">
		<stop stop-color="#37AEE2" offset="0%"></stop>
		<stop stop-color="#1E96C8" offset="100%"></stop>
	</linearGradient>
	
	<filter id="gray">
		<feColorMatrix type="matrix" values="0.33 0.33 0.33 0 0
																				 0.33 0.33 0.33 0 0
																				 0.33 0.33 0.33 0 0
																				 0    0    0    1 0"/>
	</filter>
</defs>

<symbol viewBox="0 0 22 22" id="symbol_telegram" xmlns="http://www.w3.org/2000/svg">
	<g>
		<path d="M22,11 C22,17.0775 17.0775,22 11,22 C4.9225,22 0,17.0775 0,11 C0,4.9225 4.9225,0 11,0 C17.0775,0 22,4.9225 22,11 Z" id="path2995-1-0" fill="url(#linearGradient-1)"></path>
		<path d="M8.98333333,16.0416667 C8.62583333,16.0416667 8.69,15.9041667 8.56166667,15.565 L7.51666667,12.1183333 L14.0066667,8.06666667 L14.7675,8.26833333 L14.135,9.99166667 L8.98333333,16.0416667 Z" id="path2993" fill="#C8DAEA"></path>
		<path d="M8.98333333,16.0416667 C9.25833333,16.0416667 9.3775,15.9133333 9.53333333,15.7666667 C9.77166667,15.5375 12.8333333,12.5583333 12.8333333,12.5583333 L10.9541667,12.1 L9.2125,13.2 L8.98333333,15.95 L8.98333333,16.0416667 Z" id="path2989" fill="#A9C9DD"></path>
		<path d="M9.16666667,13.2366667 L13.6033333,16.5091667 C14.1075,16.7841667 14.4741667,16.6466667 14.6025,16.0416667 L16.4083333,7.535 C16.5916667,6.7925 16.1241667,6.4625 15.6383333,6.6825 L5.04166667,10.7708333 C4.3175,11.0641667 4.32666667,11.4675 4.91333333,11.6416667 L7.63583333,12.4941667 L13.9333333,8.525 C14.2266667,8.34166667 14.5016667,8.4425 14.2816667,8.64416667 L9.16666667,13.2366667 Z" id="path2991" fill="#FFFFFF"></path>
	</g>
</symbol>
	
<view id="general" width="22" height="22" viewBox="0 0 22 22"/>
<view id="grey" width="22" height="22" viewBox="100 0 22 22"/>

<use xlink:href="#symbol_telegram" width="22" height="22" x="0" y="0"/>
<use xlink:href="#symbol_telegram" width="22" height="22" x="100" y="0" filter="url(#gray)"/>
</svg>